<svg width="38" height="38" viewBox="0 0 38 38" fill="none" xmlns="http://www.w3.org/2000/svg">
<g clip-path="url(#clip0_50_389)">
<path fill-rule="evenodd" clip-rule="evenodd" d="M36.4167 9.5H1.58333V7.91667C1.58333 5.29332 3.70998 3.16667 6.33333 3.16667H7.91666V1.58333C7.91666 0.708882 8.62555 0 9.49999 0C10.3744 0 11.0833 0.708882 11.0833 1.58333V3.16667H26.9167V1.58333C26.9167 0.708882 27.6255 0 28.5 0C29.3745 0 30.0833 0.708882 30.0833 1.58333V3.16667H31.6667C34.2901 3.16667 36.4167 5.29332 36.4167 7.91667V9.5ZM36.4167 12.6667V33.25C36.4167 35.8734 34.2901 38 31.6667 38H6.33333C3.70998 38 1.58333 35.8734 1.58333 33.25V12.6667H36.4167ZM9.49999 28.5C8.62555 28.5 7.91666 29.2089 7.91666 30.0833C7.91666 30.9578 8.62555 31.6667 9.49999 31.6667C10.3744 31.6667 11.0833 30.9578 11.0833 30.0833C11.0833 29.2089 10.3744 28.5 9.49999 28.5ZM15.8333 28.5C14.9589 28.5 14.25 29.2089 14.25 30.0833C14.25 30.9578 14.9589 31.6667 15.8333 31.6667C16.7078 31.6667 17.4167 30.9578 17.4167 30.0833C17.4167 29.2089 16.7078 28.5 15.8333 28.5ZM22.1667 28.5C21.2922 28.5 20.5833 29.2089 20.5833 30.0833C20.5833 30.9578 21.2922 31.6667 22.1667 31.6667C23.0411 31.6667 23.75 30.9578 23.75 30.0833C23.75 29.2089 23.0411 28.5 22.1667 28.5ZM9.49999 22.1667C8.62555 22.1667 7.91666 22.8755 7.91666 23.75C7.91666 24.6245 8.62555 25.3333 9.49999 25.3333C10.3744 25.3333 11.0833 24.6245 11.0833 23.75C11.0833 22.8755 10.3744 22.1667 9.49999 22.1667ZM15.8333 22.1667C14.9589 22.1667 14.25 22.8755 14.25 23.75C14.25 24.6245 14.9589 25.3333 15.8333 25.3333C16.7078 25.3333 17.4167 24.6245 17.4167 23.75C17.4167 22.8755 16.7078 22.1667 15.8333 22.1667ZM22.1667 22.1667C21.2922 22.1667 20.5833 22.8755 20.5833 23.75C20.5833 24.6245 21.2922 25.3333 22.1667 25.3333C23.0411 25.3333 23.75 24.6245 23.75 23.75C23.75 22.8755 23.0411 22.1667 22.1667 22.1667ZM9.49999 15.8333C8.62555 15.8333 7.91666 16.5422 7.91666 17.4167C7.91666 18.2911 8.62555 19 9.49999 19C10.3744 19 11.0833 18.2911 11.0833 17.4167C11.0833 16.5422 10.3744 15.8333 9.49999 15.8333ZM15.8333 15.8333C14.9589 15.8333 14.25 16.5422 14.25 17.4167C14.25 18.2911 14.9589 19 15.8333 19C16.7078 19 17.4167 18.2911 17.4167 17.4167C17.4167 16.5422 16.7078 15.8333 15.8333 15.8333ZM22.1667 15.8333C21.2922 15.8333 20.5833 16.5422 20.5833 17.4167C20.5833 18.2911 21.2922 19 22.1667 19C23.0411 19 23.75 18.2911 23.75 17.4167C23.75 16.5422 23.0411 15.8333 22.1667 15.8333ZM28.5 28.5C27.6255 28.5 26.9167 29.2089 26.9167 30.0833C26.9167 30.9578 27.6255 31.6667 28.5 31.6667C29.3745 31.6667 30.0833 30.9578 30.0833 30.0833C30.0833 29.2089 29.3745 28.5 28.5 28.5ZM28.5 22.1667C27.6255 22.1667 26.9167 22.8755 26.9167 23.75C26.9167 24.6245 27.6255 25.3333 28.5 25.3333C29.3745 25.3333 30.0833 24.6245 30.0833 23.75C30.0833 22.8755 29.3745 22.1667 28.5 22.1667ZM28.5 15.8333C27.6255 15.8333 26.9167 16.5422 26.9167 17.4167C26.9167 18.2911 27.6255 19 28.5 19C29.3745 19 30.0833 18.2911 30.0833 17.4167C30.0833 16.5422 29.3745 15.8333 28.5 15.8333Z" fill="#01B7F1"/>
</g>
<defs>
<clipPath id="clip0_50_389">
<rect width="38" height="38" fill="white"/>
</clipPath>
</defs>
</svg>
