<svg width="45" height="44" viewBox="0 0 45 44" fill="none" xmlns="http://www.w3.org/2000/svg">
<g clip-path="url(#clip0_50_447)">
<path d="M5.04313 20.6171H1.88295C1.11917 20.6171 0.5 21.2363 0.5 22C0.5 22.7638 1.11917 23.383 1.88295 23.383H5.04313C5.80691 23.383 6.42608 22.7638 6.42608 22C6.42608 21.2363 5.80691 20.6171 5.04313 20.6171Z" fill="#01B7F1"/>
<path d="M43.117 20.6171H39.9583C39.1945 20.6171 38.5754 21.2363 38.5754 22C38.5754 22.7638 39.1945 23.383 39.9583 23.383H43.117C43.8808 23.383 44.5 22.7638 44.5 22C44.5 21.2363 43.8808 20.6171 43.117 20.6171Z" fill="#01B7F1"/>
<path d="M3.95358 31.1102C3.29197 31.4922 3.0652 32.3381 3.44704 32.9998C3.82899 33.6616 4.67521 33.8884 5.33695 33.5063L8.07249 31.9267C8.73398 31.5448 8.96064 30.6989 8.57878 30.0374C8.19687 29.3758 7.35091 29.149 6.6893 29.531L3.95358 31.1102Z" fill="#01B7F1"/>
<path d="M41.0466 12.889C41.7081 12.5071 41.9347 11.6612 41.5528 10.9997C41.1709 10.3381 40.3249 10.1115 39.6634 10.4935L36.9274 12.0733C36.266 12.4552 36.0393 13.301 36.4212 13.9625C36.8031 14.6241 37.6491 14.8508 38.3106 14.4688L41.0466 12.889Z" fill="#01B7F1"/>
<path d="M10.9942 39.1633C10.6122 39.8249 10.8388 40.6709 11.5004 41.0528C12.162 41.4347 13.0078 41.2081 13.3898 40.5466L14.9695 37.8107C15.3516 37.1491 15.1248 36.3031 14.4632 35.9212C13.8017 35.5393 12.9559 35.766 12.574 36.4274L10.9942 39.1633Z" fill="#01B7F1"/>
<path d="M34.0069 4.83735C34.3891 4.17542 34.1621 3.32896 33.5001 2.947C32.8382 2.56518 31.9922 2.79211 31.6103 3.45388L30.0316 6.18935C29.6498 6.85097 29.8765 7.69684 30.5381 8.07873C31.1997 8.46062 32.0456 8.23396 32.4275 7.57244L34.0069 4.83735Z" fill="#01B7F1"/>
<path d="M23.8837 42.617V39.4576C23.8837 38.6939 23.2645 38.0747 22.5007 38.0747C21.7369 38.0747 21.1178 38.6939 21.1178 39.4576V42.617C21.1178 43.3808 21.7369 44 22.5007 44C23.2645 44 23.8837 43.3808 23.8837 42.617Z" fill="#01B7F1"/>
<path d="M23.8837 4.54236V1.38295C23.8837 0.619168 23.2645 0 22.5007 0C21.7369 0 21.1178 0.619167 21.1178 1.38295V4.54236C21.1178 5.30614 21.7369 5.9253 22.5007 5.9253C23.2645 5.9253 23.8837 5.30614 23.8837 4.54236Z" fill="#01B7F1"/>
<path d="M30.5381 35.9213C29.8765 36.3032 29.6498 37.149 30.0316 37.8107L31.6102 40.5461C31.9922 41.2079 32.8382 41.4348 33.5001 41.0529C34.1622 40.671 34.3891 39.8245 34.0069 39.1626L32.4276 36.4275C32.0456 35.766 31.1997 35.5394 30.5381 35.9213Z" fill="#01B7F1"/>
<path d="M14.4632 8.07882C15.1249 7.69691 15.3516 6.8509 14.9695 6.18932L13.3898 3.45336C13.0078 2.79188 12.162 2.56523 11.5005 2.94711C10.8389 3.32904 10.6122 4.17504 10.9942 4.83662L12.574 7.57256C12.9559 8.23402 13.8017 8.46067 14.4632 8.07882Z" fill="#01B7F1"/>
<path d="M36.4212 30.0374C36.0394 30.699 36.266 31.5448 36.9275 31.9268L39.663 33.5063C40.3247 33.8884 41.1709 33.6616 41.5529 32.9998C41.9348 32.3381 41.708 31.4922 41.0464 31.1102L38.3107 29.531C37.6491 29.149 36.8031 29.3758 36.4212 30.0374Z" fill="#01B7F1"/>
<path d="M8.5788 13.9625C8.96065 13.301 8.73401 12.4552 8.07257 12.0733L5.33656 10.4935C4.675 10.1115 3.82903 10.3381 3.4471 10.9997C3.06523 11.6612 3.29187 12.5071 3.95333 12.889L6.68935 14.4688C7.35092 14.8508 8.19689 14.6241 8.5788 13.9625Z" fill="#01B7F1"/>
<path d="M22.5008 8.58739C15.0924 8.58739 9.08817 14.5924 9.08817 22C9.08817 29.4076 15.0924 35.4126 22.5008 35.4126C29.9076 35.4126 35.9134 29.4075 35.9134 22C35.9134 14.5924 29.9076 8.58739 22.5008 8.58739Z" fill="#01B7F1"/>
</g>
<defs>
<clipPath id="clip0_50_447">
<rect width="44" height="44" fill="white" transform="translate(0.5)"/>
</clipPath>
</defs>
</svg>
