<svg width="38" height="42" viewBox="0 0 38 42" fill="none" xmlns="http://www.w3.org/2000/svg">
<path d="M34.4999 27.0817C31.8674 27.2432 29.2456 26.6222 26.9531 25.2943C24.6605 23.9664 22.796 21.9887 21.5861 19.6016C20.3231 17.2432 19.7598 14.5618 19.9646 11.8834C20.1695 9.20506 21.1337 6.64495 22.74 4.51428C22.9466 4.24938 23.0725 3.92869 23.1023 3.59176C23.1321 3.25482 23.0645 2.91635 22.9078 2.6181C22.7537 2.32391 22.5196 2.08124 22.2336 1.91917C21.9475 1.7571 21.6216 1.68252 21.295 1.70436C19.0897 1.85764 16.9412 2.48441 14.9906 3.54351C11.1205 5.73938 8.26244 9.40807 7.04221 13.7461C5.82199 18.0842 6.33908 22.7381 8.48026 26.6885C10.4926 30.7087 13.9868 33.7527 18.1978 35.1538C22.4087 36.555 26.9931 36.1991 30.9471 34.1642C32.9012 33.1118 34.6147 31.6502 35.975 29.8754C36.1757 29.6121 36.2977 29.2953 36.3262 28.9632C36.3547 28.631 36.2886 28.2975 36.1357 28.0027C35.981 27.7033 35.7437 27.4566 35.453 27.2929C35.1624 27.1293 34.8311 27.0559 34.4999 27.0817Z" fill="#01B7F1"/>
</svg>
