<svg width="48" height="59" viewBox="0 0 48 59" fill="none" xmlns="http://www.w3.org/2000/svg">
<g clip-path="url(#clip0_50_159)">
<path d="M43.2277 25.1597C43.0527 24.4099 42.9152 23.6675 42.8419 22.9C42.7702 22.1413 42.7238 21.3811 42.6132 20.6254C42.5011 19.8637 42.3052 19.1169 42.0899 18.3789C41.7445 17.1979 41.3872 16.0229 41.0299 14.8448C40.8759 14.0283 40.7084 13.2119 40.4797 12.4117C40.2913 11.7508 40.0611 11.1017 39.774 10.4764C39.5766 10.0497 39.1834 9.03461 38.5271 9.33098C38.3372 9.41692 38.1907 9.61104 38.0741 9.81405C37.9993 8.98571 37.9246 8.15738 37.8498 7.33052C37.8184 6.98822 37.8349 6.56146 37.5448 6.31993C37.2832 6.1021 36.9229 6.16433 36.6403 6.30807C36.1275 6.56739 35.7462 7.09788 35.51 7.62244C35.4786 7.36312 35.4487 7.10381 35.4173 6.84301C35.3874 6.60147 35.3754 6.33771 35.2304 6.13173C34.8865 5.63829 34.2556 5.9065 33.8893 6.2162C33.4826 6.5585 33.209 7.03416 33.0386 7.53057C32.8592 8.0581 32.8084 8.61822 32.7949 9.1739C32.7201 9.15612 32.6424 9.15464 32.5691 9.17094C32.5751 9.07462 32.5691 8.9783 32.5512 8.88199C32.4166 8.1885 31.6362 8.04772 31.0651 8.28926C31.0307 8.30408 30.9978 8.32186 30.9649 8.33816C31.4015 7.29496 31.8201 6.24583 32.2163 5.18485C32.4824 4.46914 32.8547 3.59931 32.321 2.90878C32.1012 2.62427 31.7723 2.47313 31.4134 2.51758C31.0352 2.56352 30.6719 2.77987 30.3624 2.99028C30.2129 3.09105 30.0708 3.20366 29.9378 3.32073C30.017 3.11476 30.0903 2.90582 30.1546 2.6954C30.2742 2.30124 30.3594 1.89818 30.4028 1.49069C30.4416 1.1143 30.4431 0.699395 30.2054 0.380805C29.7853 -0.17784 28.9704 -0.0578131 28.4741 0.318568C28.1526 0.561586 27.9164 0.890549 27.6697 1.20618C27.3946 1.56181 27.1195 1.91893 26.8429 2.27605C26.4886 2.73245 26.1358 3.19033 25.7814 3.64673C25.9234 3.21404 26.0416 2.77394 26.1313 2.32791C26.206 1.9619 26.2539 1.56181 26.0834 1.21359C25.9279 0.894995 25.5975 0.712731 25.2462 0.708286C24.4717 0.697913 23.8124 1.31731 23.304 1.82261C22.703 2.42127 22.2081 3.10883 21.8089 3.85122C21.6116 4.21871 21.4277 4.59509 21.1975 4.9448C20.9612 5.3034 20.6622 5.58494 20.3393 5.86797C20.0193 6.14655 19.7427 6.44884 19.5304 6.81633C19.3226 7.17641 19.1731 7.56465 19.0042 7.94251C18.3179 9.4836 17.1428 10.7031 16.0484 11.9642C15.5639 12.5243 15.0765 13.12 14.6639 13.7557C14.9211 13.0696 15.2515 12.4117 15.6701 11.8026C15.9302 11.4263 16.2248 11.078 16.5462 10.7506C16.8901 10.4008 17.2504 10.0674 17.5524 9.68217C18.1519 8.91903 18.5332 8.01512 18.8382 7.10381C19.0968 6.32733 19.2942 5.32414 18.6917 4.64547C18.3643 4.27946 17.9292 4.39801 17.6092 4.70474C17.2728 5.02778 16.9648 5.37008 16.606 5.67089C16.2293 5.98652 15.8271 6.27251 15.4055 6.5259C14.9958 6.7704 14.5637 6.97044 14.1466 7.20161C13.7325 7.42832 13.3482 7.6995 13.0253 8.04476C12.6919 8.39743 12.4198 8.80345 12.1641 9.21391C10.8708 11.2988 9.62543 13.4149 8.35609 15.5146C8.31572 15.5842 8.32021 15.6524 8.35161 15.7043C8.01073 16.4793 7.90457 17.3313 7.8672 18.1745C7.82085 19.2265 7.82832 20.2801 7.80291 21.3337C7.776 22.4154 7.73264 23.4971 7.63247 24.5744C7.53379 25.6265 7.40222 26.6949 7.11965 27.7144C6.85203 28.6805 6.30632 29.6985 5.27769 30.0231C5.19696 30.0483 5.1536 30.1046 5.13715 30.1683C5.09529 30.2261 5.07586 30.3031 5.11174 30.3846C6.50816 33.4757 8.73585 36.1193 11.2237 38.4087C11.5795 38.7361 11.9353 39.0636 12.3076 39.3689C12.6799 39.6741 13.0821 39.9438 13.5575 40.0564C13.6233 40.0727 13.6786 40.0564 13.722 40.0268C13.725 40.0238 13.7295 40.0224 13.7325 40.0209C13.7878 39.9838 13.8431 39.9468 13.8984 39.9083C14.3454 39.6104 14.7865 39.3022 15.2231 38.9866C15.7792 38.585 16.3279 38.1716 16.8662 37.7433C17.3401 37.3684 17.847 36.9209 18.1624 36.3875C18.1684 36.4201 18.1729 36.4541 18.1774 36.4867C18.2297 36.8113 18.288 37.1521 18.4151 37.4544C18.5736 37.8307 18.9384 38.013 19.3361 38.1093C19.6231 38.1805 19.9266 38.2071 20.1823 38.2308C21.6998 38.3731 23.2113 37.9745 24.6556 37.5566C27.5755 36.712 30.4371 35.6703 33.2165 34.4448C35.7941 33.3097 38.3925 32.068 40.6157 30.3224C41.16 29.8956 41.6788 29.4363 42.1587 28.9399C42.6162 28.4686 43.0752 27.9604 43.292 27.3306C43.5372 26.6223 43.3921 25.8621 43.2247 25.1538L43.2277 25.1597Z" fill="#01B7F1"/>
<path d="M18.8816 33.2164C17.8709 34.9324 16.3235 36.4794 14.8478 37.3536C14.3664 37.6396 13.864 37.8856 13.3452 38.0945C13.2241 38.1434 13.266 38.3331 13.3796 38.3613C13.9313 38.4902 14.495 38.6206 15.0063 38.8695C15.081 38.9051 15.1543 38.9451 15.2261 38.9881C15.7822 38.5865 16.3309 38.1731 16.8692 37.7448C17.3431 37.3699 17.8499 36.9224 18.1654 36.389C18.1714 36.4216 18.1759 36.4557 18.1804 36.4883C18.1923 36.432 18.2043 36.3742 18.2133 36.3178C18.3433 35.617 18.4734 34.9175 18.6035 34.2166C18.7934 33.9381 18.9713 33.6521 19.1357 33.3557C19.2269 33.1942 18.9773 33.0519 18.8816 33.2134V33.2164Z" fill="white"/>
<path d="M15.7822 18.013C15.5849 17.5684 15.3262 17.1268 14.936 16.8216C14.6639 16.6082 14.3634 16.5045 14.0449 16.4719C14.329 15.2049 14.7177 13.9587 15.2126 12.757C15.3322 12.468 15.5086 12.1731 15.5819 11.8694C15.6521 11.5834 15.5131 11.3492 15.3636 11.1151C15.0795 10.6676 14.7042 10.2557 14.172 10.1178C13.9148 10.0512 13.8087 10.4468 14.0673 10.5135C14.5413 10.6365 14.8493 11.0499 15.0855 11.4485C15.1603 11.576 15.2141 11.6708 15.1662 11.8219C15.1214 11.9612 15.0481 12.0961 14.9898 12.2309C14.8777 12.4917 14.7685 12.7555 14.6654 13.0207C14.2348 14.1247 13.8909 15.2597 13.6338 16.4156C13.6293 16.4333 13.6278 16.4511 13.6293 16.4674C13.565 16.4719 13.5007 16.4778 13.4349 16.4867C12.2194 16.6408 11.0144 16.9727 9.86911 17.3995C9.62242 17.4914 9.72559 17.8885 9.97377 17.7951C11.0248 17.4039 12.1133 17.112 13.2211 16.9298C13.7309 16.8468 14.2542 16.8023 14.6818 17.1417C15.0272 17.4173 15.2455 17.8203 15.4219 18.216C15.5295 18.4575 15.8884 18.253 15.7807 18.013H15.7822Z" fill="white"/>
<path d="M23.4177 16.1118C23.0035 15.7917 22.561 15.5339 22.0811 15.325C21.628 15.1294 21.2498 14.913 20.9747 14.4951C20.8521 14.3084 20.7504 14.1099 20.6547 13.9083C20.6099 13.8135 20.574 13.6712 20.4873 13.6046C20.3976 13.5364 20.2406 13.5334 20.1315 13.5082C19.659 13.3986 19.2 13.2386 18.7634 13.0281C18.2581 12.7836 17.7842 12.4784 17.3566 12.1168C17.1562 11.9464 16.8617 12.2354 17.065 12.4058C17.9696 13.1719 19.0535 13.7038 20.2197 13.9424C20.4679 14.4833 20.7504 15.0241 21.2588 15.3679C21.5443 15.5606 21.8762 15.6702 22.1842 15.8184C22.5176 15.9799 22.8361 16.174 23.1276 16.4008C23.3339 16.5608 23.63 16.2733 23.4192 16.1118H23.4177Z" fill="white"/>
<path d="M29.3876 4.06463C29.2829 4.00535 29.1708 4.05129 29.1065 4.14168C28.6176 4.83221 28.2363 5.5909 27.9687 6.39256C27.885 6.64299 28.2857 6.74671 28.3679 6.49629C28.6236 5.72871 28.9958 5.00558 29.4653 4.34321C29.5296 4.25282 29.4773 4.11501 29.3876 4.06314V4.06463Z" fill="white"/>
<path d="M27.7549 7.0653C27.0433 8.23149 26.354 9.41102 25.6872 10.6024C25.0383 11.7641 24.367 12.9303 23.8333 14.1484C23.5417 14.8122 23.304 15.4983 23.1799 16.214C23.1351 16.4719 23.5343 16.5786 23.5791 16.3178C23.7974 15.0538 24.373 13.9009 24.9711 12.7762C25.6005 11.5893 26.2538 10.4142 26.9281 9.25246C27.3154 8.58565 27.7101 7.92327 28.1122 7.26535C28.2498 7.04011 27.891 6.8371 27.7534 7.06234L27.7549 7.0653Z" fill="white"/>
<path d="M24.4029 6.16585C24.068 6.64596 23.7316 7.1231 23.4012 7.60617C23.0843 8.0685 22.7852 8.54564 22.5729 9.06576C22.4698 9.31915 22.3875 9.58143 22.2739 9.83038C22.1588 10.0808 22.0168 10.3179 21.8717 10.5535C21.5832 11.0232 21.323 11.4989 21.0913 11.9998C20.8341 12.5584 20.586 13.123 20.2436 13.6386C20.0986 13.8594 20.4574 14.061 20.6024 13.8417C21.2064 12.9274 21.5428 11.8723 22.1169 10.9388C22.4055 10.469 22.6567 10.0067 22.848 9.49104C23.0454 8.95463 23.319 8.46563 23.636 7.99144C24.0008 7.44465 24.385 6.90972 24.7618 6.37034C24.9128 6.15399 24.5524 5.95247 24.4029 6.16733V6.16585Z" fill="white"/>
<path d="M25.9025 4.51658C25.889 4.46768 25.8517 4.41433 25.8053 4.39062C25.7156 4.34469 25.5676 4.36099 25.5227 4.46768C25.4644 4.60697 25.3957 4.74329 25.3194 4.87518C25.2805 4.94038 25.2402 5.00409 25.1968 5.06781C25.1759 5.09893 25.1534 5.13005 25.131 5.16117C25.1206 5.17598 25.1101 5.19377 25.0966 5.2071C25.14 5.16265 25.0966 5.2071 25.0862 5.21896C25.0503 5.26341 25.0264 5.3049 25.0264 5.36417C25.0264 5.41456 25.0488 5.47383 25.0862 5.50939C25.1609 5.57756 25.3074 5.59978 25.3777 5.50939C25.5825 5.25156 25.7545 4.97446 25.8816 4.67217C25.9025 4.6203 25.9159 4.57585 25.901 4.51954L25.9025 4.51658Z" fill="white"/>
<path d="M30.7989 12.5036C29.9153 15.0864 29.0452 17.6736 28.187 20.2638C27.9598 20.9484 27.734 21.6345 27.5097 22.3206C27.4903 22.3428 27.4753 22.3695 27.4664 22.4051C26.9027 24.6308 25.004 26.1452 23.4356 27.6937C21.8912 29.2155 20.3258 30.8084 19.1985 32.6696C18.599 33.6609 18.14 34.7412 17.9396 35.8837C17.8948 36.1415 18.294 36.2482 18.3388 35.9874C18.7021 33.9247 19.9027 32.148 21.2558 30.5877C21.9958 29.7341 22.7837 28.9206 23.5851 28.1249C24.4164 27.2995 25.2985 26.5201 26.0759 25.6414C26.8579 24.7567 27.5277 23.7535 27.8402 22.6096C27.8521 22.5933 27.8611 22.5755 27.8686 22.5532C28.7193 19.9601 29.5819 17.3713 30.4581 14.7856C30.7048 14.0595 30.9514 13.3334 31.1996 12.6073C31.2848 12.3569 30.8857 12.2546 30.8004 12.5036H30.7989Z" fill="white"/>
<path d="M38.7454 25.3035C38.4942 24.7641 37.8767 24.5715 37.328 24.487C36.8212 24.4085 36.0796 24.3951 35.7941 23.8884C35.7343 23.7817 35.6999 23.6616 35.6401 23.5535C35.6251 20.1453 35.9929 16.7223 35.4517 13.3349C35.3007 12.3924 35.1138 11.45 35.1751 10.4898C35.1915 10.226 34.7789 10.2275 34.7624 10.4898C34.7101 11.3285 34.8417 12.1598 34.9777 12.9852C35.1183 13.8328 35.2289 14.6804 35.2827 15.5383C35.3904 17.2409 35.3321 18.948 35.2797 20.6521C35.2543 21.5086 35.2304 22.3651 35.2289 23.2215C35.2259 23.2215 35.2229 23.2186 35.2199 23.2171C34.8566 23.0748 34.4784 22.9622 34.1031 22.86C33.7189 22.7548 33.3286 22.6718 32.9324 22.6199C32.6095 22.577 32.2866 22.5577 31.9726 22.4732C31.992 22.4451 32.004 22.4095 32.0055 22.3665C32.0548 20.7677 32.5676 19.2399 32.8577 17.6781C33.0027 16.8927 33.082 16.1014 33.0535 15.3027C33.0251 14.4833 32.9145 13.6698 32.8412 12.8533C32.759 11.936 32.7216 11.0069 32.9085 10.1001C32.9623 9.84223 32.5617 9.73702 32.5093 9.99633C32.1714 11.6323 32.5183 13.2756 32.6215 14.916C32.6723 15.725 32.6364 16.5267 32.5019 17.3269C32.3673 18.1211 32.167 18.9035 31.989 19.6889C31.7902 20.5632 31.6227 21.4463 31.5928 22.3428C31.2624 22.2184 30.947 22.0968 30.5837 22.0583C30.1441 22.0124 29.7001 22.0568 29.262 22.1013C29.0003 22.128 28.9974 22.5384 29.262 22.5103C29.6388 22.4717 30.017 22.4332 30.3968 22.4525C30.772 22.4717 31.1084 22.5799 31.4538 22.7207C31.7947 22.86 32.1296 22.9385 32.4959 22.9785C32.8756 23.0215 33.2494 23.0748 33.6217 23.1608C33.9895 23.2467 34.3513 23.3534 34.7101 23.472C34.8641 23.5224 35.0764 23.5609 35.2065 23.6631C35.3231 23.755 35.3515 23.9239 35.4143 24.0514C35.67 24.5641 36.2755 24.7449 36.8032 24.8264C37.3505 24.9123 38.1174 24.9301 38.3866 25.5065C38.4987 25.7466 38.856 25.5421 38.7454 25.3035Z" fill="white"/>
<path d="M35.2633 8.31004C35.1601 8.28781 35.033 8.34412 35.0106 8.45673C34.9538 8.7531 34.9119 9.05094 34.885 9.35175C34.8761 9.45844 34.9867 9.56069 35.0914 9.55624C35.211 9.5518 35.2872 9.46585 35.2977 9.35175C35.3037 9.28062 35.3111 9.21098 35.3186 9.13985C35.3216 9.10725 35.3246 9.07465 35.3306 9.04205C35.3231 9.08799 35.3306 9.03909 35.3321 9.02872C35.3351 9.00945 35.3366 8.99019 35.3395 8.97241C35.359 8.8346 35.3829 8.69679 35.4083 8.56046C35.4292 8.45525 35.3754 8.33523 35.2603 8.31004H35.2633Z" fill="white"/>
<path d="M39.2043 15.7606C38.9726 15.7591 38.7469 15.7325 38.5241 15.6732C38.4419 15.651 38.2998 15.6332 38.234 15.5739C38.1727 15.5176 38.1952 15.4139 38.1937 15.3338C38.1892 14.9071 38.1174 14.4818 38.0247 14.0654C37.8333 13.2134 37.5448 12.3732 37.5717 11.49C37.5792 11.2262 37.1665 11.2262 37.1591 11.49C37.1277 12.4902 37.482 13.4356 37.6749 14.4047C37.7242 14.6522 37.7616 14.9012 37.775 15.1545C37.7855 15.3605 37.7451 15.6021 37.8662 15.7843C37.9844 15.9607 38.2251 16.0199 38.4179 16.0718C38.6736 16.14 38.9397 16.1711 39.2043 16.174C39.4705 16.1755 39.4705 15.7665 39.2043 15.7651V15.7606Z" fill="white"/>
<path d="M39.8413 15.7547C39.5751 15.7547 39.5751 16.1637 39.8413 16.1637C40.1074 16.1637 40.1074 15.7547 39.8413 15.7547Z" fill="white"/>
<path d="M38.7005 19.3644C38.6437 18.8161 38.4927 18.2856 38.3835 17.7477C38.2505 17.0928 38.1742 16.4274 38.1488 15.7606C38.1383 15.4968 37.7257 15.5117 37.7362 15.7754C37.7586 16.3563 37.8214 16.9342 37.9201 17.5077C38.0157 18.0619 38.1787 18.6042 38.2594 19.1599C38.4224 20.2683 38.2146 21.3841 38.1114 22.4866C38.0531 23.1178 38.0292 23.7535 38.1174 24.3833C38.1533 24.6426 38.5674 24.6308 38.5301 24.3685C38.3731 23.2556 38.5749 22.1443 38.6766 21.0359C38.7274 20.4802 38.7573 19.9201 38.699 19.3644H38.7005Z" fill="white"/>
<path d="M16.4984 19.5748C16.4475 19.3259 16.3488 19.0828 16.2098 18.868C16.1515 18.7776 16.0259 18.7302 15.9287 18.7909C15.8375 18.8472 15.7882 18.9732 15.851 19.071C15.9093 19.1629 15.9601 19.2577 16.002 19.3585C16.0424 19.4622 16.0752 19.5703 16.0977 19.68C16.1186 19.7852 16.2472 19.8578 16.3503 19.8267C16.4625 19.7926 16.5208 19.6889 16.4984 19.5763V19.5748Z" fill="white"/>
<path d="M16.7077 20.6965C16.6628 20.4357 16.2636 20.5424 16.3085 20.8003C16.6853 22.9696 16.3264 25.2531 15.3277 27.2165C15.0436 27.7766 14.7072 28.3086 14.326 28.808C14.2587 28.8969 14.317 29.0362 14.4037 29.0881C14.5099 29.1503 14.619 29.0984 14.6848 29.011C16.0738 27.1913 16.8363 24.9256 16.8662 22.6466C16.8751 21.9931 16.8198 21.3411 16.7077 20.6965Z" fill="white"/>
<path d="M17.4044 25.6339C17.2878 25.6028 17.1921 25.6769 17.1517 25.7806C16.8856 26.4786 16.4954 27.1321 16.0065 27.6981C15.9347 27.7826 15.9228 27.9056 16.0065 27.9871C16.0812 28.0612 16.2263 28.0715 16.298 27.9871C16.8378 27.3617 17.2579 26.6534 17.5509 25.8829C17.5898 25.7792 17.5031 25.6591 17.4029 25.6325L17.4044 25.6339Z" fill="white"/>
<path d="M17.7094 24.7656C17.7094 24.7656 17.7094 24.7597 17.7079 24.7567C17.7079 24.7538 17.7064 24.7508 17.7049 24.7478C17.6989 24.73 17.6914 24.7123 17.684 24.696C17.684 24.696 17.684 24.693 17.6825 24.6915C17.669 24.6663 17.6511 24.6456 17.6272 24.6308C17.6062 24.613 17.5823 24.5996 17.5554 24.5937C17.5285 24.5863 17.5031 24.5848 17.4762 24.5908C17.4492 24.5908 17.4238 24.5996 17.3999 24.6145C17.385 24.6248 17.37 24.6367 17.3565 24.6471C17.3296 24.6737 17.3117 24.7049 17.3027 24.7404C17.3012 24.7582 17.2982 24.7745 17.2967 24.7923C17.2967 24.7952 17.2967 24.7967 17.2967 24.7997C17.2848 24.8175 17.2743 24.8353 17.2698 24.8575C17.2624 24.8842 17.2609 24.9093 17.2668 24.936C17.2668 24.9627 17.2758 24.9879 17.2908 25.0116L17.3237 25.0546C17.3506 25.0812 17.382 25.099 17.4178 25.1079C17.4358 25.1109 17.4522 25.1124 17.4702 25.1153C17.5061 25.1153 17.5404 25.1064 17.5718 25.0886C17.5748 25.0872 17.5763 25.0857 17.5793 25.0827C17.5958 25.0709 17.6137 25.059 17.6287 25.0442C17.6302 25.0427 17.6331 25.0397 17.6346 25.0383C17.6346 25.0383 17.6361 25.0353 17.6376 25.0353C17.6496 25.0205 17.6615 25.0042 17.6735 24.9894C17.6765 24.9849 17.6795 24.979 17.6825 24.9745C17.6929 24.9538 17.7019 24.9331 17.7079 24.9108C17.7139 24.8901 17.7154 24.8634 17.7184 24.8441C17.7184 24.8382 17.7184 24.8323 17.7184 24.8264C17.7169 24.8071 17.7139 24.7864 17.7109 24.7671L17.7094 24.7656Z" fill="white"/>
<path d="M22.6955 22.8066C20.9418 21.07 20.0268 18.5879 20.1494 16.1414C20.1838 15.4465 20.3079 14.7589 20.5142 14.0936C20.5919 13.8417 20.1927 13.7379 20.115 13.9898C19.354 16.4437 19.7352 19.1955 21.0629 21.393C21.4367 22.0124 21.8882 22.5873 22.404 23.0971C22.5924 23.2838 22.8839 22.9948 22.6955 22.8081V22.8066Z" fill="white"/>
<path d="M23.2607 16.0703C22.7613 16.1044 22.2799 16.3311 21.954 16.7119C21.8837 16.7934 21.8672 16.9223 21.954 17.0009C22.0317 17.0705 22.1707 17.0883 22.2455 17.0009C22.3143 16.9194 22.3905 16.8453 22.4743 16.7801C22.4757 16.7801 22.4847 16.7727 22.4907 16.7682C22.4997 16.7623 22.5116 16.7534 22.5116 16.7534C22.5311 16.7401 22.552 16.7253 22.5729 16.7134C22.6193 16.6838 22.6671 16.6571 22.715 16.6319C22.7374 16.6215 22.7583 16.6097 22.7807 16.6008C22.7942 16.5949 22.8092 16.5889 22.8226 16.583C22.8719 16.5652 22.9198 16.5474 22.9706 16.5341C23.023 16.5193 23.0768 16.5074 23.1306 16.4971C23.1426 16.4956 23.1545 16.4926 23.1665 16.4911C23.1695 16.4911 23.1725 16.4911 23.1754 16.4911C23.2039 16.4882 23.2323 16.4852 23.2592 16.4837C23.3668 16.4763 23.4715 16.3948 23.4655 16.2792C23.461 16.174 23.3743 16.0659 23.2592 16.0747L23.2607 16.0703Z" fill="white"/>
<path d="M21.6923 17.9581C21.7312 17.927 21.7521 17.8603 21.7521 17.8129C21.7521 17.7625 21.7297 17.7033 21.6923 17.6677C21.6535 17.6321 21.6011 17.6055 21.5458 17.6084C21.5279 17.6099 21.5114 17.6129 21.4935 17.6158C21.4576 17.6247 21.4262 17.6425 21.3993 17.6692C21.3141 17.7373 21.2423 17.8263 21.1885 17.9211C21.1347 18.0144 21.0943 18.1211 21.0793 18.2278C21.0719 18.2827 21.0704 18.3316 21.0988 18.3805C21.1242 18.4249 21.175 18.4664 21.2259 18.4768C21.2767 18.4871 21.335 18.4857 21.3799 18.4575C21.4232 18.4294 21.4696 18.3849 21.477 18.3316C21.4845 18.2827 21.498 18.2352 21.5144 18.1878C21.5338 18.1463 21.5563 18.1063 21.5817 18.0693C21.6146 18.0293 21.649 17.9907 21.6893 17.9581H21.6923Z" fill="white"/>
<path d="M14.2198 35.6169C13.7549 34.8286 13.1957 34.0966 12.5543 33.4416C12.3689 33.252 12.0774 33.5424 12.2627 33.7306C12.8787 34.3618 13.414 35.0613 13.861 35.8185C13.9956 36.0467 14.3544 35.8437 14.2198 35.6155V35.6169Z" fill="white"/>
<path d="M14.7372 36.4156C14.6998 36.346 14.6624 36.2763 14.6265 36.2082C14.6131 36.183 14.5951 36.1622 14.5712 36.1474C14.5503 36.1296 14.5263 36.1163 14.4994 36.1104C14.4725 36.103 14.4471 36.1015 14.4202 36.1074C14.3933 36.1074 14.3679 36.1163 14.3439 36.1311C14.329 36.1415 14.314 36.1534 14.3006 36.1637C14.2737 36.1904 14.2557 36.2215 14.2468 36.2571C14.2453 36.2749 14.2423 36.2912 14.2408 36.3089C14.2408 36.3445 14.2498 36.3786 14.2677 36.4097C14.3051 36.4794 14.3424 36.549 14.3783 36.6172C14.3918 36.6424 14.4097 36.6631 14.4337 36.6779C14.4546 36.6957 14.4785 36.709 14.5054 36.715C14.5323 36.7224 14.5577 36.7239 14.5847 36.7179C14.6116 36.7179 14.637 36.709 14.6609 36.6942L14.7043 36.6616C14.7312 36.6349 14.7491 36.6038 14.7581 36.5683C14.7611 36.5505 14.7626 36.5342 14.7656 36.5164C14.7656 36.4808 14.7566 36.4468 14.7387 36.4156H14.7372Z" fill="white"/>
<path d="M30.2547 9.39176C29.5087 11.1003 28.6774 12.7733 27.7639 14.4003C27.3154 15.1975 26.8414 15.9755 26.517 16.832C26.3555 17.2572 26.218 17.6914 26.046 18.1137C25.8801 18.5168 25.6558 18.8917 25.4884 19.2933C25.2028 19.9793 25.1654 20.9618 25.9414 21.3559C26.1776 21.476 26.3839 21.1203 26.1462 21.0003C25.4794 20.6625 25.7066 19.7793 25.9578 19.2532C26.1372 18.8783 26.3301 18.5138 26.4841 18.1256C26.6396 17.7329 26.7682 17.3313 26.9177 16.9372C27.2257 16.1251 27.6847 15.3872 28.1093 14.6315C28.5369 13.8713 28.9465 13.0993 29.3382 12.3198C29.7883 11.4233 30.2144 10.5135 30.615 9.59477C30.7197 9.3562 30.3609 9.15023 30.2562 9.39176H30.2547Z" fill="white"/>
<path d="M26.8324 21.5975C26.8205 21.5738 26.8085 21.5515 26.7981 21.5278C26.7846 21.5026 26.7667 21.4819 26.7427 21.4671C26.7218 21.4493 26.6979 21.436 26.671 21.43C26.6441 21.4226 26.6186 21.4211 26.5917 21.4271C26.5648 21.4271 26.5394 21.436 26.5155 21.4508L26.4721 21.4834C26.4452 21.5101 26.4273 21.5412 26.4183 21.5767C26.4168 21.5945 26.4138 21.6108 26.4123 21.6286C26.4123 21.6642 26.4213 21.6982 26.4392 21.7294C26.4512 21.7531 26.4632 21.7753 26.4736 21.799C26.4871 21.8242 26.505 21.8449 26.5289 21.8598C26.5499 21.8775 26.5738 21.8909 26.6007 21.8968C26.6276 21.9042 26.653 21.9057 26.6799 21.8998C26.7069 21.8998 26.7323 21.8909 26.7562 21.8761C26.7711 21.8657 26.7861 21.8538 26.7996 21.8435C26.8265 21.8168 26.8444 21.7857 26.8534 21.7501C26.8549 21.7323 26.8579 21.716 26.8594 21.6982C26.8594 21.6627 26.8504 21.6286 26.8324 21.5975Z" fill="white"/>
<path d="M25.2297 18.5257C25.0698 18.3064 24.8799 18.1093 24.7124 17.8959C24.533 17.6677 24.3745 17.4232 24.228 17.1728C24.095 16.9446 23.7361 17.1461 23.8692 17.3758C24.1398 17.8426 24.4792 18.2412 24.8171 18.659C25.1445 19.0651 25.2058 19.5629 25.2507 20.0638C25.2731 20.3246 25.6872 20.3276 25.6633 20.0638C25.6155 19.5289 25.5557 18.9747 25.2297 18.5257Z" fill="white"/>
<path d="M27.3258 12.5999C27.1464 12.3258 26.9027 12.0961 26.6127 11.939C26.5185 11.8871 26.3824 11.9168 26.3316 12.0161C26.2807 12.1139 26.3077 12.2398 26.4093 12.2961C26.4781 12.3332 26.5439 12.3761 26.6082 12.4221C26.7203 12.5095 26.822 12.6103 26.9102 12.7214C26.9296 12.7481 26.9491 12.7747 26.9685 12.8029C27.0268 12.8933 27.1524 12.9407 27.2496 12.88C27.3393 12.8236 27.3901 12.6962 27.3273 12.5999H27.3258Z" fill="white"/>
<path d="M27.7041 12.9837C27.438 12.9837 27.438 13.3927 27.7041 13.3927C27.9702 13.3927 27.9702 12.9837 27.7041 12.9837Z" fill="white"/>
<path d="M27.2032 13.6579C27.1883 13.609 27.1554 13.5527 27.1061 13.532C26.979 13.4786 26.8594 13.4104 26.7472 13.3289C26.665 13.2637 26.5888 13.1926 26.5185 13.1141C26.4467 13.0326 26.2972 13.037 26.2269 13.1141C26.1462 13.2015 26.1507 13.3171 26.2269 13.403C26.4093 13.612 26.6441 13.7824 26.9012 13.8891C26.9536 13.9098 26.9999 13.9232 27.0552 13.9083C27.1046 13.895 27.1584 13.858 27.1823 13.812C27.2062 13.7661 27.2182 13.7098 27.2017 13.6594L27.2032 13.6579Z" fill="white"/>
<path d="M24.4762 10.961C24.3925 10.9254 24.3132 10.8825 24.237 10.8351C24.2175 10.8232 24.1981 10.8099 24.1787 10.7965C24.1712 10.7906 24.1637 10.7862 24.1562 10.7802C24.1233 10.7521 24.089 10.7254 24.0561 10.6972C23.9918 10.638 23.9305 10.5743 23.8767 10.5061C23.8767 10.5061 23.8767 10.5061 23.8782 10.5091C23.8737 10.5002 23.8662 10.4928 23.8602 10.4839C23.8468 10.4646 23.8333 10.4468 23.8213 10.4276C23.7959 10.389 23.772 10.349 23.7496 10.309C23.6972 10.2157 23.5612 10.1742 23.4685 10.232C23.3728 10.2912 23.3354 10.4113 23.3907 10.512C23.5851 10.8647 23.9021 11.1581 24.2743 11.3181C24.3252 11.3404 24.373 11.3522 24.4283 11.3374C24.4777 11.3241 24.5315 11.287 24.5554 11.2411C24.6018 11.1507 24.5838 11.0069 24.4777 10.9625L24.4762 10.961Z" fill="white"/>
<path d="M23.8747 10.5045C23.8516 10.4632 23.8631 10.4898 23.8747 10.5045V10.5045Z" fill="white"/>
<path d="M24.7991 10.0334L24.7662 9.99041C24.7393 9.96374 24.7079 9.94596 24.6721 9.93707C24.6377 9.92521 24.6018 9.91336 24.5674 9.9015C24.5405 9.89409 24.5151 9.89261 24.4882 9.89854C24.4612 9.89854 24.4358 9.90743 24.4119 9.92225C24.3865 9.93558 24.3656 9.95337 24.3506 9.97708C24.3327 9.99782 24.3192 10.0215 24.3132 10.0482C24.3117 10.066 24.3087 10.0823 24.3073 10.1001C24.3073 10.1356 24.3162 10.1697 24.3342 10.2008C24.3446 10.2156 24.3566 10.2305 24.3671 10.2438C24.394 10.2705 24.4254 10.2883 24.4612 10.2971C24.4956 10.309 24.5315 10.3209 24.5659 10.3327C24.5928 10.3401 24.6182 10.3416 24.6451 10.3357C24.6721 10.3357 24.6975 10.3268 24.7214 10.312C24.7468 10.2986 24.7677 10.2808 24.7827 10.2571C24.8006 10.2364 24.8141 10.2127 24.8201 10.186C24.8231 10.1682 24.8246 10.1519 24.826 10.1341C24.826 10.0986 24.8171 10.0645 24.7991 10.0334Z" fill="white"/>
<path d="M27.6742 6.34662C27.6338 6.30958 27.5905 6.29476 27.5381 6.28883C27.5411 6.28883 27.5456 6.28883 27.5486 6.28883C27.417 6.27105 27.2885 6.23845 27.1659 6.19103C27.1225 6.17177 27.0792 6.15251 27.0373 6.13176C26.9416 6.08138 26.807 6.10805 26.7562 6.20881C26.7069 6.30513 26.7323 6.43405 26.834 6.48888C27.0522 6.60446 27.2855 6.67114 27.5307 6.69781C27.58 6.70374 27.6428 6.67114 27.6772 6.63854C27.7131 6.60298 27.74 6.54519 27.737 6.49332C27.734 6.43998 27.7176 6.38515 27.6772 6.3481L27.6742 6.34662Z" fill="white"/>
<path d="M24.2833 6.31106C23.7197 6.23697 23.2203 5.98209 22.8391 5.57459C22.7628 5.49309 22.6238 5.49902 22.5475 5.57459C22.4653 5.65609 22.4713 5.78205 22.5475 5.86355C22.9721 6.31847 23.5582 6.6252 24.1787 6.7067C24.2893 6.72152 24.3999 6.67707 24.4313 6.56C24.4568 6.46368 24.3955 6.32439 24.2833 6.30958V6.31106Z" fill="white"/>
<path d="M21.5951 8.41227C21.5862 8.37671 21.5682 8.34559 21.5413 8.31892C21.4082 8.16185 21.2243 8.04923 21.027 7.98699C20.9792 7.97218 20.9149 7.98255 20.873 8.00626C20.8282 8.03145 20.7863 8.08183 20.7758 8.13221C20.7654 8.18259 20.7669 8.24038 20.7953 8.28484C20.8252 8.33226 20.867 8.36486 20.9223 8.38116C20.9358 8.3856 20.9478 8.39005 20.9612 8.39449C21.021 8.41968 21.0763 8.45228 21.1287 8.48933C21.172 8.52489 21.2124 8.56342 21.2498 8.60639C21.2827 8.64492 21.3469 8.66567 21.3963 8.66567C21.4456 8.66567 21.5069 8.64344 21.5428 8.60639C21.5787 8.56787 21.6056 8.516 21.6026 8.46117C21.6011 8.44339 21.5981 8.42709 21.5966 8.40931L21.5951 8.41227Z" fill="white"/>
<path d="M21.3021 9.1843C21.2886 9.17986 21.2767 9.17393 21.2632 9.16948C21.2393 9.15911 21.2154 9.14874 21.1915 9.13837C21.1406 9.11614 21.0913 9.09095 21.0434 9.06576C20.9492 9.01538 20.8566 8.95907 20.7698 8.89683C20.7609 8.88942 20.7504 8.88349 20.7414 8.87608C20.7384 8.8746 20.7265 8.86423 20.719 8.85978C20.7145 8.85682 20.71 8.85238 20.7085 8.85238C20.6966 8.84348 20.6861 8.83459 20.6742 8.8257C20.6338 8.7931 20.5949 8.75902 20.556 8.72346C20.4753 8.64937 20.3991 8.56935 20.3288 8.48488C20.26 8.4019 20.1075 8.40783 20.0372 8.48488C19.9565 8.57231 19.9625 8.68641 20.0372 8.77384C20.3467 9.13985 20.7504 9.4125 21.1989 9.58143C21.3006 9.61996 21.4292 9.53549 21.4516 9.43473C21.477 9.31618 21.4127 9.22579 21.3036 9.1843H21.3021Z" fill="white"/>
<path d="M28.0764 17.029C28.0674 16.9935 28.0495 16.9624 28.0225 16.9357C27.9642 16.8897 27.9059 16.8423 27.8476 16.7964C27.8282 16.7756 27.8058 16.7608 27.7789 16.7534C27.7549 16.7416 27.7295 16.7356 27.7011 16.7371C27.6742 16.7371 27.6473 16.7416 27.6234 16.7534C27.5964 16.7623 27.574 16.7756 27.5546 16.7964L27.5217 16.8394C27.5038 16.8705 27.4948 16.9046 27.4948 16.9401C27.4963 16.9579 27.4993 16.9742 27.5008 16.992C27.5097 17.0276 27.5277 17.0587 27.5546 17.0853C27.6129 17.1313 27.6712 17.1787 27.7295 17.2246C27.7489 17.2454 27.7714 17.2602 27.7983 17.2676C27.8222 17.2795 27.8476 17.2854 27.876 17.2839C27.9029 17.2839 27.9299 17.2795 27.9538 17.2676C27.9807 17.2587 28.0031 17.2454 28.0225 17.2246C28.033 17.2098 28.045 17.195 28.0554 17.1817C28.0734 17.1505 28.0824 17.1165 28.0824 17.0809L28.0764 17.029Z" fill="white"/>
<path d="M29.6642 13.7557C29.6552 13.7201 29.6373 13.689 29.6103 13.6623C29.57 13.6105 29.5206 13.572 29.4683 13.5319C29.416 13.4934 29.3592 13.4682 29.2979 13.4445C29.271 13.4371 29.2455 13.4356 29.2186 13.4416C29.1917 13.4416 29.1663 13.4504 29.1424 13.4653C29.117 13.4786 29.096 13.4964 29.0811 13.5201C29.0631 13.5408 29.0497 13.5645 29.0437 13.5912C29.0332 13.6416 29.0347 13.6994 29.0631 13.7438L29.096 13.7868C29.1215 13.812 29.1514 13.8283 29.1842 13.8372C29.1708 13.8313 29.1573 13.8268 29.1439 13.8209C29.1753 13.8342 29.2052 13.8505 29.2336 13.8683C29.2635 13.8935 29.2919 13.9202 29.3158 13.9498C29.3352 13.9706 29.3577 13.9854 29.3846 13.9928C29.4085 14.0046 29.4339 14.0106 29.4623 14.0091C29.4892 14.0091 29.5162 14.0046 29.5401 13.9928C29.567 13.9839 29.5894 13.9706 29.6089 13.9498L29.6417 13.9068C29.6597 13.8757 29.6687 13.8416 29.6687 13.8061C29.6672 13.7883 29.6642 13.772 29.6627 13.7542L29.6642 13.7557Z" fill="white"/>
<path d="M36.9273 18.013C36.8974 17.967 36.8556 17.93 36.8002 17.9167C36.6597 17.8811 36.5207 17.8455 36.3801 17.81C36.3293 17.7966 36.271 17.804 36.2261 17.8307C36.1813 17.8559 36.1394 17.9063 36.1289 17.9567C36.1185 18.007 36.12 18.0648 36.1484 18.1093C36.1783 18.1552 36.2201 18.1923 36.2755 18.2056C36.416 18.2412 36.555 18.2767 36.6956 18.3123C36.7464 18.3256 36.8047 18.3182 36.8496 18.2916C36.8944 18.2664 36.9363 18.216 36.9468 18.1656C36.9572 18.1152 36.9557 18.0574 36.9273 18.013Z" fill="white"/>
<path d="M37.5896 18.8858C37.5313 18.7924 37.4072 18.7509 37.3086 18.8087C37.2742 18.8295 37.2383 18.8472 37.2024 18.865C37.186 18.8724 37.1695 18.8813 37.1531 18.8872C37.1426 18.8902 37.1292 18.8947 37.1262 18.8961C37.0559 18.9198 36.9826 18.9391 36.9079 18.951C36.9019 18.951 36.8944 18.9524 36.8884 18.9539C36.8705 18.9539 36.8511 18.9569 36.8331 18.9584C36.7957 18.9613 36.7584 18.9613 36.721 18.9613C36.6851 18.9613 36.6432 18.9628 36.6089 18.9539C36.6597 18.9673 36.5924 18.951 36.5819 18.9495C36.561 18.9465 36.5401 18.9421 36.5192 18.9361C36.4145 18.9124 36.2904 18.9717 36.2665 19.0828C36.2441 19.1881 36.3009 19.3081 36.4145 19.3333C36.7883 19.4163 37.1845 19.3585 37.5149 19.1673C37.6076 19.1125 37.6524 18.9821 37.5926 18.8887L37.5896 18.8858Z" fill="white"/>
<path d="M36.6328 13.3067C36.6163 13.2563 36.5849 13.2045 36.5356 13.1808C36.3951 13.1126 36.2545 13.043 36.114 12.9748C36.0662 12.9511 36.0123 12.9407 35.96 12.9555C35.9107 12.9689 35.8568 13.0059 35.8329 13.0518C35.809 13.0978 35.797 13.1541 35.8135 13.2045C35.8299 13.2549 35.8613 13.3067 35.9107 13.3304C36.0512 13.3986 36.1917 13.4682 36.3323 13.5364C36.3801 13.5601 36.4339 13.5705 36.4863 13.5557C36.5356 13.5423 36.5894 13.5053 36.6134 13.4593C36.6373 13.4134 36.6492 13.3571 36.6328 13.3067Z" fill="white"/>
<path d="M34.1435 12.3361L34.124 12.2872C34.1046 12.2546 34.0792 12.2294 34.0463 12.2102L33.9058 12.1405C33.8818 12.1257 33.8564 12.1183 33.8295 12.1168C33.8026 12.1109 33.7772 12.1124 33.7503 12.1198C33.7234 12.1257 33.6994 12.1376 33.6785 12.1568C33.6546 12.1716 33.6366 12.1924 33.6232 12.2176C33.6157 12.2339 33.6097 12.2502 33.6022 12.2665C33.5933 12.3006 33.5933 12.3361 33.6022 12.3702C33.6097 12.3865 33.6157 12.4028 33.6232 12.4191C33.6426 12.4517 33.668 12.4769 33.7009 12.4962L33.8415 12.5658C33.8654 12.5806 33.8908 12.588 33.9177 12.5895C33.9446 12.5954 33.97 12.594 33.997 12.5866C34.0239 12.5806 34.0478 12.5688 34.0687 12.5495C34.0926 12.5347 34.1106 12.5139 34.124 12.4888C34.13 12.4725 34.1375 12.4562 34.1435 12.4399C34.1524 12.4058 34.1524 12.3702 34.1435 12.3361Z" fill="white"/>
<path d="M17.9576 4.95817C17.6989 5.22934 17.3984 5.45457 17.0964 5.67536C16.8273 5.87245 16.5283 6.10065 16.1769 6.10361C15.9108 6.10657 15.9108 6.51555 16.1769 6.51259C16.5941 6.50963 16.9484 6.28735 17.2743 6.05026C17.6152 5.80132 17.9576 5.55237 18.2491 5.24712C18.4315 5.05597 18.14 4.76553 17.9576 4.95817Z" fill="white"/>
<path d="M32.1296 15.1723C32.1131 15.119 32.0802 15.076 32.0324 15.0464C31.8933 14.9604 31.7259 14.916 31.5629 14.9175C31.5091 14.9175 31.4538 14.9397 31.4164 14.9767C31.379 15.0138 31.3536 15.0701 31.3566 15.1219C31.3596 15.1753 31.376 15.2301 31.4164 15.2672C31.4568 15.3042 31.5061 15.3279 31.5629 15.3264C31.5838 15.3264 31.6063 15.3279 31.6272 15.3309C31.6676 15.3383 31.7079 15.3487 31.7468 15.362C31.7752 15.3739 31.8021 15.3872 31.829 15.4035C31.8724 15.4302 31.9352 15.4361 31.983 15.4228C32.0324 15.4094 32.0862 15.3724 32.1101 15.3264C32.134 15.2805 32.146 15.2242 32.1296 15.1738V15.1723Z" fill="white"/>
<path d="M30.9798 17.7077C30.7571 17.6395 30.5223 17.6055 30.2891 17.6084C30.1815 17.6084 30.0783 17.7018 30.0828 17.8129C30.0873 17.9226 30.174 18.0189 30.2891 18.0174C30.3758 18.0174 30.4625 18.0219 30.5478 18.0307C30.6584 18.047 30.7675 18.0693 30.8752 18.1034C30.9783 18.1359 31.1054 18.0619 31.1279 17.9567C31.1518 17.844 31.0905 17.7403 30.9798 17.7062V17.7077Z" fill="white"/>
<path d="M31.8933 18.0619C31.8874 18.0456 31.8799 18.0293 31.8739 18.013C31.8545 17.9804 31.829 17.9552 31.7962 17.9359C31.7737 17.9241 31.7513 17.9137 31.7289 17.9033C31.705 17.8885 31.6795 17.8811 31.6526 17.8796C31.6257 17.8737 31.6003 17.8752 31.5734 17.8826C31.5465 17.8885 31.5225 17.9003 31.5016 17.9196C31.4777 17.9344 31.4598 17.9552 31.4463 17.9804C31.4403 17.9967 31.4328 18.013 31.4269 18.0293C31.4179 18.0633 31.4179 18.0989 31.4269 18.133C31.4328 18.1493 31.4403 18.1656 31.4463 18.1819C31.4657 18.2145 31.4912 18.2397 31.524 18.2589C31.5465 18.2693 31.5689 18.2812 31.5913 18.2915C31.6152 18.3064 31.6407 18.3138 31.6676 18.3153C31.6945 18.3212 31.7199 18.3197 31.7468 18.3123C31.7737 18.3064 31.7976 18.2945 31.8186 18.2752C31.8425 18.2604 31.8604 18.2397 31.8739 18.2145C31.8799 18.1982 31.8874 18.1819 31.8933 18.1656C31.9023 18.1315 31.9023 18.0959 31.8933 18.0619Z" fill="white"/>
<path d="M13.9567 29.8334C13.9507 29.8067 13.9387 29.783 13.9193 29.7623C13.9044 29.7386 13.8834 29.7208 13.858 29.7075C13.8117 29.6837 13.7548 29.6719 13.704 29.6867C13.6517 29.703 13.6038 29.7341 13.5769 29.783C13.5246 29.8764 13.4723 29.9712 13.4199 30.0646C13.3945 30.1105 13.3871 30.1668 13.4005 30.2172C13.4065 30.2439 13.4185 30.2676 13.4379 30.2883C13.4528 30.312 13.4738 30.3298 13.4992 30.3432C13.5455 30.3669 13.6023 30.3787 13.6532 30.3624C13.7055 30.3461 13.7534 30.315 13.7803 30.2661C13.8326 30.1727 13.8849 30.0779 13.9373 29.9846C13.9627 29.9386 13.9701 29.8823 13.9567 29.8319V29.8334Z" fill="white"/>
<path d="M39.0295 25.668C38.6557 25.7762 38.2954 25.9288 37.9664 26.1333C37.6256 26.3452 37.334 26.6105 37.0425 26.8831C36.7659 27.1424 36.4743 27.4092 36.108 27.5381C35.9765 27.584 35.8434 27.6137 35.7074 27.6329C35.5534 27.5662 35.3994 27.504 35.2409 27.4477C34.0777 27.0313 32.8472 26.9365 31.6243 27.0906C30.9559 27.175 30.2966 27.3232 29.6447 27.4921C29.3158 27.5781 28.9884 27.667 28.6625 27.7604C28.4307 27.827 28.1855 27.9263 28.0375 28.1264C27.9702 28.2182 27.9314 28.3279 27.9374 28.4435C27.9448 28.5917 28.036 28.6998 28.0943 28.8287C28.202 29.0629 28.1437 29.3415 28.0256 29.5593C27.749 30.072 27.1509 30.2928 26.6486 30.5254C25.4196 31.0944 24.3192 31.9257 23.4386 32.9482C23.4311 32.9556 23.4267 32.9645 23.4222 32.9719C23.4087 32.9778 23.3953 32.9838 23.3818 32.9912C23.1471 33.1156 23.3519 33.4713 23.5866 33.3468C23.7885 33.2401 24.0157 33.2549 24.237 33.2668C24.5001 33.2816 24.7618 33.2905 25.0249 33.2831C25.5392 33.2697 26.052 33.212 26.5619 33.1423C27.5307 33.0075 28.495 32.8311 29.4504 32.6222C31.3671 32.2014 33.2524 31.6338 35.0824 30.9285C35.8509 30.6321 36.6104 30.312 37.3579 29.9683C37.5702 30.1076 37.7825 30.2483 37.9993 30.3832C38.1025 30.4469 38.2161 30.3906 38.2804 30.3061C38.723 29.7238 38.9128 29.0066 39.0369 28.2997C39.1835 27.4714 39.2986 26.6386 39.4182 25.8058C39.4541 25.5613 39.0967 25.4532 39.028 25.6651L39.0295 25.668Z" fill="white"/>
<path d="M32.4899 51.0086C25.9653 51.542 20.7878 51.0782 18.273 50.7522C18.2446 50.7478 18.2177 50.7448 18.1893 50.7418C17.7079 50.6766 17.3282 50.6203 17.062 50.5774C17.0501 50.5774 17.0396 50.5729 17.0291 50.5714C16.7525 50.527 16.609 50.4988 16.609 50.4988L16.7705 49.2556L16.7765 49.2067L17.4238 44.1907L17.7363 41.762L17.7662 41.5383V41.522L17.8021 41.2553C18.0488 41.199 18.2925 41.1456 18.5347 41.0908C19.2703 40.9278 19.9834 40.7722 20.6727 40.624C20.6861 40.624 20.7011 40.6196 20.713 40.6151C21.5413 40.4403 22.3367 40.2758 23.0917 40.1246C23.3235 40.0772 23.5522 40.0313 23.775 39.9868C24.3536 39.8727 24.9068 39.7646 25.4301 39.6653C29.2814 38.9333 31.6467 38.5954 31.6467 38.5954L31.7483 40.1098L31.8515 41.6198L32.4884 51.0071L32.4899 51.0086Z" fill="white"/>
<path d="M42.9361 23.9195C42.8001 23.6202 42.6102 23.3475 42.4592 23.0571C42.1437 22.4495 42.0032 21.7753 41.8582 21.1129C41.7879 20.7899 41.7161 20.4654 41.6249 20.1468C41.5412 19.8519 41.453 19.5155 41.29 19.2518C41.1346 18.9984 40.8445 18.8784 40.6023 19.0977C40.3885 19.2903 40.2136 19.5526 40.0566 19.7912C39.7411 20.2713 39.5079 20.8077 39.3599 21.3604C39.019 22.6333 39.1311 24.0099 39.7127 25.1983C38.8904 26.2667 38.1952 27.421 37.6465 28.6524C36.4818 29.1785 35.1572 29.0866 33.9103 29.1992C32.4824 29.3281 31.1458 29.8675 29.7987 30.3209C28.4846 30.764 27.1494 31.173 25.8726 31.7153C24.7094 32.2103 23.5836 32.8548 22.7165 33.7825C21.8942 34.6627 21.3006 35.7799 21.2214 36.9847C20.6129 36.6513 20.0059 36.3134 19.4019 35.9726C19.1731 36.0926 18.91 36.14 18.6543 36.1682C18.5317 36.1815 18.4091 36.1889 18.285 36.1963C18.2551 36.1978 18.2252 36.2008 18.1953 36.2038C18.1759 36.2067 18.155 36.2112 18.1355 36.2126C18.2611 37.6248 18.2462 39.0459 18.0907 40.4551C18.0742 40.6003 18.2327 40.6699 18.3493 40.6536C21.3739 40.221 24.4927 40.1498 27.5262 40.5321C28.3216 40.6329 29.12 40.7974 29.8376 41.1663C30.0275 41.2642 30.1979 41.0522 30.1321 40.9026C30.1008 40.4566 30.0963 40.0105 30.1187 39.566C30.7795 39.1185 31.5121 38.7762 32.2447 38.4591C33.1493 38.0679 34.0568 37.6841 34.9478 37.2603C36.715 36.4186 38.4329 35.4584 40.0013 34.2878C40.8744 33.6358 41.7012 32.9245 42.4562 32.1406C42.4951 32.1006 42.5115 32.0561 42.513 32.0117C42.5399 31.9806 42.5579 31.9406 42.5624 31.8917C42.7044 30.3328 42.8449 28.7754 42.987 27.2165C43.0229 26.8209 43.0587 26.4267 43.0946 26.0311C43.129 25.6577 43.1754 25.2828 43.1619 24.9064C43.1499 24.5626 43.0782 24.2336 42.9346 23.921L42.9361 23.9195Z" fill="#01B7F1"/>
<path d="M42.1736 22.3117C42.1198 22.2169 41.9882 22.1769 41.8926 22.2347C41.8447 22.2628 41.8507 22.2613 41.8058 22.2732C41.8014 22.2732 41.773 22.2806 41.767 22.2821C41.752 22.2836 41.7371 22.285 41.7221 22.285C41.7042 22.285 41.6862 22.285 41.6683 22.2836C41.6294 22.2806 41.6698 22.2865 41.6339 22.2776C41.613 22.2717 41.5906 22.2673 41.5696 22.2613C41.5696 22.2613 41.5337 22.2495 41.5307 22.2495C41.4949 22.2347 41.4605 22.2154 41.4276 22.1961C41.4141 22.1887 41.4022 22.1798 41.3887 22.1709C41.3857 22.168 41.3603 22.1472 41.3558 22.1443C41.2855 22.082 41.2422 22.0302 41.1973 21.9605C41.1002 21.8138 41.0314 21.6493 40.9701 21.4967C40.8864 21.2863 40.8041 21.0774 40.7204 20.8669C40.68 20.7647 40.5844 20.6906 40.4677 20.7202C40.3691 20.7454 40.2794 20.8669 40.3197 20.9707C40.4124 21.2033 40.5021 21.436 40.5963 21.6686C40.683 21.882 40.7742 22.0894 40.9163 22.2717C41.1839 22.617 41.6877 22.8333 42.0959 22.5888C42.1916 22.5325 42.2304 22.408 42.1736 22.3102V22.3117Z" fill="white"/>
<path d="M22.1573 34.8998C22.1947 34.8642 22.2171 34.8064 22.2171 34.7545C22.2171 34.7027 22.1947 34.6449 22.1573 34.6093C22.1184 34.5738 22.0661 34.5471 22.0108 34.55C21.9555 34.553 21.9061 34.5708 21.8643 34.6093C21.7372 34.7293 21.6445 34.8894 21.6041 35.0583C21.5922 35.1087 21.5982 35.165 21.6236 35.2109C21.649 35.2554 21.6998 35.2969 21.7507 35.3073C21.8015 35.3176 21.8598 35.3161 21.9046 35.288C21.951 35.2584 21.9899 35.2154 22.0018 35.162C22.0078 35.1339 22.0183 35.1072 22.0272 35.0805C22.0452 35.0405 22.0676 35.002 22.093 34.965C22.1125 34.9412 22.1319 34.919 22.1543 34.8983L22.1573 34.8998Z" fill="white"/>
<path d="M40.8176 18.9465C40.3108 19.071 39.8996 19.6104 39.6424 20.0312C39.3569 20.4965 39.1745 21.0255 39.0803 21.5604C38.862 22.8022 39.1087 24.0558 39.3614 25.2724C39.3524 25.2798 39.3419 25.2857 39.3345 25.2931C39.0429 25.545 38.8426 25.9303 38.6437 26.2533C38.1952 26.9794 37.808 27.7426 37.4835 28.5309C37.4417 28.6346 37.4551 28.7487 37.5613 28.811C37.648 28.8613 37.8005 28.8362 37.8424 28.7339C38.1429 28.0034 38.4957 27.2951 38.9039 26.6179C39.0908 26.3067 39.2762 25.9644 39.5169 25.6932C39.626 25.5702 39.7456 25.4887 39.9116 25.4635C40.0999 25.4354 40.2868 25.4443 40.4692 25.382C40.7204 25.2961 40.6158 24.9004 40.3646 24.9864C40.1837 25.0486 39.9938 25.0368 39.8069 25.0679C39.7845 25.0723 39.765 25.0783 39.7426 25.0827C39.5169 23.9995 39.2926 22.8763 39.4615 21.7709C39.5348 21.2922 39.6753 20.821 39.9071 20.3942C40.0207 20.1838 40.1553 19.9853 40.3137 19.806C40.4767 19.6237 40.6741 19.4029 40.9208 19.3422C41.1794 19.2784 41.0747 18.8828 40.8161 18.9465H40.8176Z" fill="white"/>
<path d="M37.5493 28.4538C33.2823 28.9651 29.1663 30.3506 25.1924 31.9272C24.6541 32.1406 24.1278 32.3762 23.6494 32.7037C23.1994 33.0134 22.7942 33.3809 22.4444 33.8002C22.2769 34.0018 22.567 34.2937 22.7359 34.0892C23.3773 33.3186 24.1817 32.7822 25.1071 32.3984C26.07 31.9998 27.0552 31.6442 28.036 31.2915C29.9961 30.5877 31.9861 29.9564 34.0164 29.4881C35.1811 29.2199 36.3592 29.0051 37.5463 28.8628C37.808 28.8317 37.811 28.4212 37.5463 28.4538H37.5493Z" fill="white"/>
<path d="M17.0022 41.476L11.578 48.4095C11.578 48.4095 3.5957 43.5284 0 34.6508L4.48678 30.967L5.41224 30.2068C5.41224 30.2068 5.78302 30.9344 6.54552 32.0843C6.57243 32.1213 6.59636 32.1613 6.62327 32.1999C6.97312 32.723 7.39922 33.3275 7.90456 33.9869C8.56838 34.8508 9.36377 35.8096 10.2997 36.7994C10.518 37.0291 10.7437 37.2632 10.9785 37.4974C11.6318 38.1538 12.3465 38.8177 13.1209 39.4741L14.5891 39.4445L15.8151 38.5598L17.0052 41.476H17.0022Z" fill="white"/>
<path d="M48 22.1398C47.7145 22.0035 47.4932 21.7575 47.3437 21.4804C47.1942 21.2033 47.1149 20.8951 47.0596 20.5854C47.0177 20.3542 46.9729 20.0979 46.9594 19.8623C46.9235 20.3305 46.8204 20.8017 46.5872 21.2122C46.3539 21.6212 45.9816 21.9664 45.5256 22.0983C45.9428 22.2924 46.2522 22.6925 46.4496 23.106C46.647 23.5194 46.7337 23.9758 46.7725 24.4322C46.8503 23.9921 46.9549 23.549 47.1388 23.1415C47.3227 22.734 47.6128 22.371 47.9985 22.1398H48Z" fill="white"/>
<path d="M36.8571 43.9625C36.5715 43.8262 36.3502 43.5802 36.2007 43.3031C36.0527 43.026 35.972 42.7178 35.9167 42.4081C35.8748 42.1769 35.8299 41.9206 35.8165 41.685C35.7806 42.1532 35.6774 42.6244 35.4442 43.0349C35.211 43.4439 34.8387 43.7891 34.3827 43.921C34.7998 44.1151 35.1093 44.5152 35.3067 44.9287C35.504 45.3421 35.5907 45.7985 35.6296 46.2549C35.7073 45.8148 35.812 45.3717 35.9959 44.9642C36.1798 44.5552 36.4698 44.1937 36.8556 43.9625H36.8571Z" fill="white"/>
<path d="M4.80824 20.1082C4.4255 19.926 4.12798 19.5955 3.92763 19.2236C3.72879 18.8517 3.62114 18.4382 3.54639 18.0233C3.49107 17.7121 3.42977 17.3698 3.41183 17.0542C3.36249 17.6825 3.22494 18.3152 2.91247 18.865C2.59999 19.4147 2.09913 19.8756 1.48914 20.0534C2.0498 20.3142 2.46244 20.8506 2.72857 21.4048C2.9947 21.959 3.10982 22.5725 3.16215 23.183C3.2668 22.5918 3.40734 21.999 3.65403 21.4508C3.90072 20.9025 4.28945 20.4165 4.80824 20.1068V20.1082Z" fill="white"/>
<path d="M0.505349 15.5887C-0.168938 15.5887 -0.168938 16.626 0.505349 16.626C1.17964 16.626 1.17964 15.5887 0.505349 15.5887Z" fill="white"/>
<path d="M42.199 37.4025C41.7176 37.4025 41.7176 38.1434 42.199 38.1434C42.6805 38.1434 42.6805 37.4025 42.199 37.4025Z" fill="white"/>
<path d="M8.37553 7.93512C7.89411 7.93512 7.89411 8.67603 8.37553 8.67603C8.85695 8.67603 8.85695 7.93512 8.37553 7.93512Z" fill="white"/>
<path d="M25.587 53.1987C25.1056 53.1987 25.1056 53.9396 25.587 53.9396C26.0685 53.9396 26.0685 53.1987 25.587 53.1987Z" fill="white"/>
<path d="M44.1382 16.1029C44.1173 16.0258 44.0784 15.9577 44.0216 15.9014C43.9917 15.8717 43.9618 15.8421 43.9319 15.8125C43.89 15.768 43.8407 15.7369 43.7824 15.7191C43.73 15.6924 43.6747 15.6806 43.6149 15.6835C43.5551 15.6821 43.4998 15.6939 43.4475 15.7191C43.3892 15.7369 43.3398 15.768 43.298 15.8125C43.274 15.8436 43.2486 15.8762 43.2247 15.9073C43.1858 15.9755 43.1664 16.0481 43.1664 16.1266C43.1709 16.1636 43.1768 16.2022 43.1813 16.2392C43.2023 16.3163 43.2411 16.3844 43.298 16.4407C43.3279 16.4704 43.3578 16.5 43.3877 16.5297C43.4295 16.5741 43.4789 16.6052 43.5372 16.623C43.5895 16.6497 43.6448 16.6615 43.7046 16.6586C43.7644 16.6601 43.8197 16.6482 43.8721 16.623C43.9304 16.6052 43.9797 16.5741 44.0216 16.5297C44.0455 16.4985 44.0709 16.4659 44.0948 16.4348C44.1337 16.3667 44.1531 16.294 44.1531 16.2155L44.1382 16.1029Z" fill="white"/>
<path d="M1.96903 29.9208C1.9481 29.8438 1.90923 29.7756 1.85242 29.7193C1.82252 29.6897 1.79261 29.66 1.76271 29.6304C1.72085 29.5859 1.67151 29.5548 1.6132 29.537C1.56087 29.5104 1.50555 29.4985 1.44575 29.5015C1.38595 29.5 1.33063 29.5118 1.2783 29.537C1.21999 29.5548 1.17065 29.5859 1.12879 29.6304C1.10487 29.6615 1.07945 29.6941 1.05553 29.7252C1.01666 29.7934 0.997223 29.866 0.997223 29.9445C1.00171 29.9816 1.00769 30.0201 1.01217 30.0571C1.03311 30.1342 1.07198 30.2024 1.12879 30.2587C1.15869 30.2883 1.18859 30.3179 1.2185 30.3476C1.26036 30.392 1.3097 30.4232 1.36801 30.4409C1.42033 30.4676 1.47565 30.4795 1.53546 30.4765C1.59526 30.478 1.65058 30.4661 1.70291 30.4409C1.76122 30.4232 1.81055 30.392 1.85242 30.3476C1.87634 30.3165 1.90175 30.2839 1.92568 30.2527C1.96455 30.1846 1.98399 30.112 1.98399 30.0334L1.96903 29.9208Z" fill="white"/>
</g>
<defs>
<clipPath id="clip0_50_159">
<rect width="48" height="59" fill="white"/>
</clipPath>
</defs>
</svg>
