<svg width="39" height="38" viewBox="0 0 39 38" fill="none" xmlns="http://www.w3.org/2000/svg">
<g clip-path="url(#clip0_300_344)">
<path d="M11.5042 12.7458C10.95 12.7458 10.561 12.6334 10.3372 12.4086C10.1135 12.1837 10.0011 11.7948 10 11.2417C10 10.1861 10.2507 9.20972 10.7521 8.31249C11.2535 7.41527 11.9264 6.67638 12.7708 6.09583L19.5 1.58333L26.2292 6.09583C27.0736 6.67638 27.7465 7.41527 28.2479 8.31249C28.7493 9.20972 29 10.1861 29 11.2417C29 11.7958 28.8876 12.1853 28.6628 12.4102C28.4379 12.635 28.0489 12.7469 27.4958 12.7458H11.5042ZM2.08333 33.25V13.8146C1.60833 13.5243 1.22569 13.1485 0.935417 12.6872C0.645139 12.226 0.5 11.6913 0.5 11.0833C0.5 10.4764 0.816667 9.73749 1.45 8.86666C2.08333 7.99583 2.82222 7.15138 3.66667 6.33333C4.51111 7.15138 5.25 7.99583 5.88333 8.86666C6.51667 9.73749 6.83333 10.4764 6.83333 11.0833C6.83333 11.6903 6.68819 12.2249 6.39792 12.6872C6.10764 13.1496 5.725 13.5248 5.25 13.813V20.5833H8.41667V17.4167C8.41667 16.7569 8.62778 16.1236 9.05 15.5167C9.47222 14.9097 10.0792 14.5139 10.8708 14.3292H28.1292C28.9208 14.5139 29.5278 14.9097 29.95 15.5167C30.3722 16.1236 30.5833 16.7569 30.5833 17.4167V20.5833H33.75V13.8146C33.275 13.5243 32.8924 13.1485 32.6021 12.6872C32.3118 12.226 32.1667 11.6913 32.1667 11.0833C32.1667 10.4764 32.4833 9.73749 33.1167 8.86666C33.75 7.99583 34.4889 7.15138 35.3333 6.33333C36.1778 7.15138 36.9167 7.99583 37.55 8.86666C38.1833 9.73749 38.5 10.4764 38.5 11.0833C38.5 11.6903 38.3549 12.2249 38.0646 12.6872C37.7743 13.1496 37.3917 13.5248 36.9167 13.813V33.25H22.6667V26.9167C22.6667 26.0458 22.3569 25.3006 21.7373 24.681C21.1176 24.0614 20.3719 23.751 19.5 23.75C18.6292 23.75 17.8839 24.0603 17.2643 24.681C16.6447 25.3017 16.3344 26.0469 16.3333 26.9167V33.25H2.08333Z" fill="#01B7F1"/>
</g>
<defs>
<clipPath id="clip0_300_344">
<rect width="38" height="38" fill="white" transform="translate(0.5)"/>
</clipPath>
</defs>
</svg>
