<svg width="38" height="38" viewBox="0 0 38 38" fill="none" xmlns="http://www.w3.org/2000/svg">
<path d="M13.6958 31.6667H9.5C8.62917 31.6667 7.88394 31.3569 7.26433 30.7373C6.64472 30.1176 6.33439 29.3719 6.33333 28.5V24.3042L3.28542 21.2167C2.99514 20.9 2.77083 20.5506 2.6125 20.1685C2.45417 19.7864 2.375 19.3969 2.375 19C2.375 18.6042 2.45417 18.2152 2.6125 17.8331C2.77083 17.451 2.99514 17.1011 3.28542 16.7833L6.33333 13.6958V9.5C6.33333 8.62917 6.64367 7.88394 7.26433 7.26433C7.885 6.64472 8.63022 6.33439 9.5 6.33333H13.6958L16.7833 3.28542C17.1 2.99514 17.4499 2.77083 17.8331 2.6125C18.2162 2.45417 18.6052 2.375 19 2.375C19.3958 2.375 19.7853 2.45417 20.1685 2.6125C20.5517 2.77083 20.9011 2.99514 21.2167 3.28542L24.3042 6.33333H28.5C29.3708 6.33333 30.1166 6.64367 30.7373 7.26433C31.3579 7.885 31.6677 8.63022 31.6667 9.5V13.6958L34.7146 16.7833C35.0049 17.1 35.2292 17.4499 35.3875 17.8331C35.5458 18.2162 35.625 18.6052 35.625 19C35.625 19.3958 35.5458 19.7853 35.3875 20.1685C35.2292 20.5517 35.0049 20.9011 34.7146 21.2167L31.6667 24.3042V28.5C31.6667 29.3708 31.3569 30.1166 30.7373 30.7373C30.1176 31.3579 29.3719 31.6677 28.5 31.6667H24.3042L21.2167 34.7146C20.9 35.0049 20.5506 35.2292 20.1685 35.3875C19.7864 35.5458 19.3969 35.625 19 35.625C18.6042 35.625 18.2152 35.5458 17.8331 35.3875C17.451 35.2292 17.1011 35.0049 16.7833 34.7146L13.6958 31.6667ZM20.6229 18.2083L22.9583 16.5063L25.2542 18.2083L24.3438 15.5167L26.6792 13.8146H23.8292L22.9583 11.0833L22.0875 13.8146H19.1979L21.5333 15.5167L20.6229 18.2083ZM19 26.9167C21.1903 26.9167 23.0576 26.1514 24.6018 24.6208C26.1461 23.0903 26.9177 21.2167 26.9167 19C26.9167 18.7889 26.9103 18.5778 26.8977 18.3667C26.885 18.1556 26.8517 17.9444 26.7979 17.7333C26.5076 18.9736 25.8611 19.9964 24.8583 20.8018C23.8556 21.6072 22.6813 22.0094 21.3354 22.0083C19.7521 22.0083 18.4194 21.4674 17.3375 20.3854C16.2556 19.3035 15.7146 17.9708 15.7146 16.3875C15.7146 15.1736 16.0576 14.0853 16.7437 13.1227C17.4299 12.16 18.3271 11.4802 19.4354 11.0833H19C16.7833 11.0833 14.9097 11.8555 13.3792 13.3998C11.8486 14.944 11.0833 16.8108 11.0833 19C11.0833 21.2167 11.8486 23.0903 13.3792 24.6208C14.9097 26.1514 16.7833 26.9167 19 26.9167Z" fill="#01B7F1"/>
</svg>
