<svg width="42" height="45" viewBox="0 0 42 45" fill="none" xmlns="http://www.w3.org/2000/svg">
<path d="M35 3.675H8.75C6.817 3.675 5.25 5.32036 5.25 7.35V36.75C5.25 38.7796 6.817 40.425 8.75 40.425H35C36.933 40.425 38.5 38.7796 38.5 36.75V7.35C38.5 5.32036 36.933 3.675 35 3.675Z" fill="#01B7F1"/>
<path d="M8.75 31.2375H5.25C4.78587 31.2375 4.34075 31.0439 4.01256 30.6993C3.68437 30.3547 3.5 29.8873 3.5 29.4C3.5 28.9127 3.68437 28.4453 4.01256 28.1007C4.34075 27.7561 4.78587 27.5625 5.25 27.5625H8.75C9.21413 27.5625 9.65925 27.7561 9.98744 28.1007C10.3156 28.4453 10.5 28.9127 10.5 29.4C10.5 29.8873 10.3156 30.3547 9.98744 30.6993C9.65925 31.0439 9.21413 31.2375 8.75 31.2375ZM8.75 23.8875H5.25C4.78587 23.8875 4.34075 23.6939 4.01256 23.3493C3.68437 23.0047 3.5 22.5373 3.5 22.05C3.5 21.5627 3.68437 21.0953 4.01256 20.7507C4.34075 20.4061 4.78587 20.2125 5.25 20.2125H8.75C9.21413 20.2125 9.65925 20.4061 9.98744 20.7507C10.3156 21.0953 10.5 21.5627 10.5 22.05C10.5 22.5373 10.3156 23.0047 9.98744 23.3493C9.65925 23.6939 9.21413 23.8875 8.75 23.8875ZM8.75 16.5375H5.25C4.78587 16.5375 4.34075 16.3439 4.01256 15.9993C3.68437 15.6547 3.5 15.1873 3.5 14.7C3.5 14.2127 3.68437 13.7453 4.01256 13.4007C4.34075 13.0561 4.78587 12.8625 5.25 12.8625H8.75C9.21413 12.8625 9.65925 13.0561 9.98744 13.4007C10.3156 13.7453 10.5 14.2127 10.5 14.7C10.5 15.1873 10.3156 15.6547 9.98744 15.9993C9.65925 16.3439 9.21413 16.5375 8.75 16.5375ZM29.75 12.8625H17.5C17.0359 12.8625 16.5908 13.0561 16.2626 13.4007C15.9344 13.7453 15.75 14.2127 15.75 14.7V18.375C15.75 18.8623 15.9344 19.3297 16.2626 19.6743C16.5908 20.0189 17.0359 20.2125 17.5 20.2125H29.75C30.2141 20.2125 30.6593 20.0189 30.9874 19.6743C31.3156 19.3297 31.5 18.8623 31.5 18.375V14.7C31.5 14.2127 31.3156 13.7453 30.9874 13.4007C30.6593 13.0561 30.2141 12.8625 29.75 12.8625Z" fill="#F2F2F2"/>
</svg>
