<svg width="51" height="49" viewBox="0 0 51 49" fill="none" xmlns="http://www.w3.org/2000/svg">
<path d="M18.9863 1.59059C18.2246 1.59059 17.6192 2.18012 17.6192 2.93044C17.6192 3.68075 18.2246 4.27028 18.9863 4.27028C19.7481 4.27028 20.3535 3.68075 20.3535 2.93044C20.3535 2.18012 19.7481 1.59059 18.9863 1.59059ZM21.7891 2.07868C21.8672 2.34952 21.916 2.63567 21.916 2.93044C21.916 3.22807 21.8672 3.51614 21.7891 3.78889C22.4043 3.8243 23.0391 3.88172 23.7031 3.96211C23.6738 3.81186 23.6641 3.65874 23.6641 3.50178C23.6641 3.06251 23.7617 2.64524 23.9375 2.26626C23.1953 2.17725 22.4824 2.11504 21.7891 2.07868ZM26.9844 2.16194C26.2227 2.16194 25.6172 2.75147 25.6172 3.50178C25.6172 4.25209 26.2227 4.84163 26.9844 4.84163C27.7461 4.84163 28.3516 4.25209 28.3516 3.50178C28.3516 2.75147 27.7461 2.16194 26.9844 2.16194ZM15.7051 2.47967C14.709 2.68065 13.7715 2.94479 12.9121 3.26348C13.293 3.6951 13.5567 4.23008 13.6445 4.81866C14.3574 4.56026 15.1192 4.3411 15.9395 4.16979C15.7637 3.78985 15.666 3.37067 15.666 2.93044C15.666 2.77731 15.6758 2.62706 15.7051 2.47967ZM29.9141 3.49795V3.50752C29.9141 4.11141 29.7285 4.6751 29.416 5.1517C29.8262 5.26559 30.2266 5.38618 30.6465 5.51538L30.6563 5.52495H30.6758C30.8125 5.56227 30.9492 5.60055 31.086 5.63788C31.1152 5.03399 31.3301 4.47413 31.6719 4.00997C31.5059 3.96211 31.3301 3.91522 31.1543 3.86833C30.7344 3.73721 30.3242 3.61663 29.9141 3.50083V3.49795ZM10.7442 3.92001C9.98439 3.92001 9.38283 4.50954 9.38283 5.25985C9.38283 6.01016 9.98439 6.59969 10.7442 6.59969C11.5059 6.59969 12.1113 6.01016 12.1113 5.25985C12.1113 4.50954 11.5059 3.92001 10.7442 3.92001ZM34.4063 4.44254C33.6445 4.44254 33.0391 5.03208 33.0391 5.78239C33.0391 6.5327 33.6445 7.12223 34.4063 7.12223C35.168 7.12223 35.7735 6.5327 35.7735 5.78239C35.7735 5.03208 35.168 4.44254 34.4063 4.44254ZM37.3164 6.09821C37.2578 6.69827 37.0137 7.24856 36.6426 7.69645C37.2383 7.98547 37.8047 8.28694 38.332 8.59989C38.4981 8.0295 38.8399 7.52514 39.2793 7.14233C38.6641 6.7777 38.0098 6.42934 37.3164 6.09821ZM7.67775 6.44944C7.0879 7.00643 6.5674 7.59405 6.11622 8.19985C6.71681 8.32618 7.25587 8.62286 7.67579 9.03534C8.0088 8.60659 8.38087 8.18741 8.79689 7.78641C8.30568 7.45528 7.91408 6.99207 7.67775 6.44944ZM41.5352 8.09745C40.7735 8.09745 40.168 8.68698 40.168 9.43729C40.168 10.1924 40.7735 10.7762 41.5352 10.7762C42.2969 10.7762 42.9024 10.1924 42.9024 9.43729C42.9024 8.68698 42.2969 8.09745 41.5352 8.09745ZM27.1797 8.575C26.418 8.575 25.8125 9.16454 25.8125 9.91485C25.8125 10.6709 26.418 11.2547 27.1797 11.2547C27.9414 11.2547 28.5469 10.6709 28.5469 9.91485C28.5469 9.16454 27.9414 8.575 27.1797 8.575ZM23.9766 9.08415C23.3711 9.23153 22.7559 9.42676 22.1504 9.65645C22.541 10.0871 22.8047 10.6326 22.8926 11.226C23.2735 11.0824 23.6445 10.9676 24.0156 10.8623C23.918 10.5656 23.8594 10.2498 23.8594 9.91485C23.8594 9.62774 23.8985 9.34924 23.9766 9.08415ZM30.0899 9.58946C30.0996 9.69473 30.1094 9.80958 30.1094 9.91485C30.1094 10.4221 29.9824 10.9006 29.7578 11.3217C30.0801 11.4365 30.4121 11.5514 30.7442 11.6854C30.832 11.092 31.1055 10.5561 31.4961 10.1158C31.0274 9.92442 30.5488 9.75215 30.0899 9.58946ZM5.66212 9.85743C4.8965 9.85743 4.29494 10.4508 4.29494 11.1973C4.29494 11.9438 4.8965 12.5371 5.66212 12.5371C6.42775 12.5371 7.02931 11.9438 7.02931 11.1973C7.02931 10.4508 6.42775 9.85743 5.66212 9.85743ZM20.002 10.3359C19.2402 10.3359 18.6348 10.9293 18.6348 11.6758C18.6348 12.4223 19.2402 13.0156 20.002 13.0156C20.7637 13.0156 21.3692 12.4223 21.3692 11.6758C21.3692 10.9293 20.7637 10.3359 20.002 10.3359ZM33.8301 10.8145C33.0684 10.8145 32.4629 11.4078 32.4629 12.1543C32.4629 12.9008 33.0684 13.4941 33.8301 13.4941C34.5918 13.4941 35.1973 12.9008 35.1973 12.1543C35.1973 11.4078 34.5918 10.8145 33.8301 10.8145ZM44.0254 10.9963C43.7227 11.4939 43.2734 11.9055 42.7461 12.1734C43.0977 12.585 43.4102 12.9965 43.7031 13.4272C44.1621 13.0635 44.7285 12.8242 45.3438 12.7668C44.9629 12.1543 44.5235 11.5609 44.0254 10.9963ZM16.7695 12.4031C16.2031 12.7477 15.6465 13.0922 15.0996 13.4463C15.5488 13.8195 15.8906 14.3172 16.0664 14.8914C16.5938 14.5565 17.1211 14.2215 17.6582 13.8961C17.2285 13.4941 16.916 12.9773 16.7695 12.4031ZM36.8379 12.9869C36.6719 13.5611 36.3301 14.0684 35.8906 14.4512C36.1641 14.6522 36.4277 14.8627 36.6817 15.0828C36.9942 14.5756 37.4531 14.1641 38 13.9057C37.6192 13.5898 37.2383 13.2836 36.8379 12.9869ZM3.834 13.8004C3.72853 14.7766 3.77833 15.7049 3.99708 16.5471C4.41701 16.0781 4.97755 15.7432 5.61037 15.59C5.55079 15.1785 5.53322 14.7287 5.56349 14.2598H5.46681C4.87013 14.2598 4.31056 14.0971 3.834 13.8004ZM13.2637 14.4225C12.502 14.4225 11.8965 15.0158 11.8965 15.7623C11.8965 16.5088 12.502 17.1022 13.2637 17.1022C14.0254 17.1022 14.6309 16.5088 14.6309 15.7623C14.6309 15.0158 14.0254 14.4225 13.2637 14.4225ZM45.8516 14.4703C45.0899 14.4703 44.4844 15.0637 44.4844 15.8102C44.4844 16.5566 45.0899 17.15 45.8516 17.15C46.6133 17.15 47.2188 16.5566 47.2188 15.8102C47.2188 15.0637 46.6133 14.4703 45.8516 14.4703ZM39.5527 15.3221C38.791 15.3221 38.1856 15.9154 38.1856 16.6619C38.1856 17.4084 38.791 18.0018 39.5527 18.0018C40.3145 18.0018 40.9199 17.4084 40.9199 16.6619C40.9199 15.9154 40.3145 15.3221 39.5527 15.3221ZM10.0606 16.5662C9.71095 16.7576 9.37794 16.9299 9.06349 17.0734C9.31642 17.5232 9.46193 18.0305 9.46193 18.5664C9.46193 18.643 9.46193 18.7195 9.45216 18.7961C9.51564 18.7674 9.57911 18.7387 9.64357 18.71C10.0772 18.5186 10.5195 18.2889 10.9785 18.0305C10.5391 17.6477 10.2207 17.1404 10.0606 16.5662ZM6.53224 17.2266C5.76661 17.2266 5.16505 17.8199 5.16505 18.5664C5.16505 19.3129 5.76661 19.9063 6.53224 19.9063C7.29786 19.9063 7.89943 19.3129 7.89943 18.5664C7.89943 17.8199 7.29786 17.2266 6.53224 17.2266ZM47.1699 18.4898C46.7207 18.7291 46.2031 18.8727 45.6563 18.8727C45.5781 18.8727 45.5 18.8727 45.4317 18.8631C45.4414 19.4469 45.3926 20.0402 45.2949 20.6432C45.9199 20.6719 46.5059 20.8729 46.9844 21.2078C46.9844 21.1791 46.9942 21.1408 47.0039 21.1121L47.0137 21.1025V21.093C47.1602 20.2125 47.209 19.3416 47.1699 18.4898ZM41.3594 19.0066C40.9004 19.3895 40.334 19.6383 39.709 19.7053C39.7969 20.2412 39.7969 20.7867 39.709 21.3705C40.3242 21.4471 40.8906 21.6959 41.3496 22.0691C41.584 21.0068 41.5742 19.9732 41.3594 19.0066ZM5.34767 21.4662C5.37599 21.9352 5.4131 22.3945 5.459 22.8539C5.84669 22.6816 6.2754 22.5859 6.72462 22.5859C6.88576 22.5859 7.04396 22.5955 7.19923 22.6242C7.16408 22.2606 7.1338 21.8969 7.11037 21.5332C6.86232 21.6002 6.60353 21.6289 6.33693 21.6289C5.99122 21.6289 5.65919 21.5715 5.34767 21.4662ZM45.3731 22.3658C44.6113 22.3658 44.0059 22.9592 44.0059 23.7057C44.0059 24.4522 44.6113 25.0455 45.3731 25.0455C46.1348 25.0455 46.7402 24.4522 46.7402 23.7057C46.7402 22.9592 46.1348 22.3658 45.3731 22.3658ZM39.543 23.074C38.7813 23.074 38.1758 23.6674 38.1758 24.4139C38.1758 25.1604 38.7813 25.7537 39.543 25.7537C40.3047 25.7537 40.9102 25.1604 40.9102 24.4139C40.9102 23.6674 40.3047 23.074 39.543 23.074ZM6.91993 24.3086C6.15431 24.3086 5.55275 24.902 5.55275 25.6484C5.55275 26.3949 6.15431 26.9883 6.91993 26.9883C7.68556 26.9883 8.28712 26.3949 8.28712 25.6484C8.28712 24.902 7.68556 24.3086 6.91993 24.3086ZM36.3594 25.3135C35.8906 25.4666 35.3731 25.591 34.8164 25.6867C34.9727 26.06 35.0606 26.4619 35.0606 26.883C35.0606 27.0648 35.041 27.2371 35.0117 27.4094C35.8516 27.2658 36.6621 27.0744 37.4043 26.8064C36.916 26.4236 36.5547 25.9068 36.3594 25.3135ZM32.1309 25.5432C31.3692 25.5432 30.7637 26.1365 30.7637 26.883C30.7637 27.6295 31.3692 28.2229 32.1309 28.2229C32.8926 28.2229 33.4981 27.6295 33.4981 26.883C33.4981 26.1365 32.8926 25.5432 32.1309 25.5432ZM42.9902 25.8877C42.7266 26.3184 42.4434 26.7586 42.1504 27.2084L41.6817 27.8975C42.2578 28.0602 42.7754 28.3856 43.166 28.8258C43.3223 28.5961 43.4785 28.376 43.625 28.1463C43.9473 27.6582 44.2598 27.1797 44.543 26.7012C43.9473 26.5863 43.4102 26.2897 42.9902 25.8877ZM28.8692 26.2801C28.1367 26.3279 27.3945 26.3854 26.6817 26.4619L26.418 26.4906C26.584 26.8543 26.6719 27.2658 26.6719 27.6869C26.6719 27.8592 26.6524 28.0315 26.6231 28.2037C26.711 28.1941 26.7891 28.1846 26.8672 28.175C27.5606 28.108 28.2832 28.0506 29.0254 27.9932C28.8887 27.6486 28.8106 27.2754 28.8106 26.883C28.8106 26.6725 28.8301 26.4715 28.8692 26.2801ZM23.7422 26.3471C22.9805 26.3471 22.375 26.9404 22.375 27.6869C22.375 28.4334 22.9805 29.0268 23.7422 29.0268C24.5039 29.0268 25.1094 28.4334 25.1094 27.6869C25.1094 26.9404 24.5039 26.3471 23.7422 26.3471ZM8.37599 28.242C7.89552 28.5387 7.32911 28.7109 6.72462 28.7109H6.68556C6.93458 29.4383 7.22462 30.1465 7.55763 30.8356C7.9463 30.3953 8.45997 30.0604 9.04298 29.8881C8.79298 29.3522 8.57228 28.8066 8.37599 28.242ZM20.5488 28.5482C20.5293 28.577 20.5 28.5961 20.4805 28.6248C19.7969 29.3904 19.4746 30.4527 19.6211 31.6395C19.6504 31.8596 19.6895 32.0797 19.7383 32.3094C20.2168 31.9744 20.8027 31.783 21.418 31.7639C21.3985 31.649 21.3789 31.5438 21.3692 31.4385C21.291 30.8164 21.3789 30.4049 21.5742 30.0604C21.0957 29.6775 20.7344 29.1512 20.5488 28.5482ZM41.0078 29.4957C40.2461 29.4957 39.6406 30.0891 39.6406 30.8356C39.6406 31.582 40.2461 32.1754 41.0078 32.1754C41.7695 32.1754 42.375 31.582 42.375 30.8356C42.375 30.0891 41.7695 29.4957 41.0078 29.4957ZM10.1192 31.4863C9.35353 31.4863 8.75197 32.0797 8.75197 32.8262C8.75197 33.5727 9.35353 34.166 10.1192 34.166C10.8809 34.166 11.4766 33.5727 11.4766 32.8262C11.4766 32.0797 10.8809 31.4863 10.1192 31.4863ZM38.0977 32.3381C37.6094 32.8549 37.1211 33.3525 36.6133 33.8311C37.1016 34.1564 37.4922 34.6254 37.7266 35.1709C38.2832 34.6445 38.8301 34.099 39.3574 33.5439C38.8301 33.2664 38.3906 32.8453 38.0977 32.3381ZM21.7012 33.4865C20.9395 33.4865 20.334 34.0799 20.334 34.8264C20.334 35.5729 20.9395 36.1662 21.7012 36.1662C22.4629 36.1662 23.0684 35.5729 23.0684 34.8264C23.0684 34.0799 22.4629 33.4865 21.7012 33.4865ZM12.707 34.4436L10.8711 35.8504C10.5684 36.817 12.5508 45.526 14.5625 47.4113L15.002 46.8945L13.6836 40.9801L15.6856 46.2246C15.7246 46.1959 16.0078 46.0045 16.0469 45.9758L15.207 43.5162L16.5645 45.593C17.3945 45.0475 18.2539 44.8082 19.9141 44.6647L18.3613 41.717L21.3985 44.6072C22.1992 44.6072 23.1074 44.6551 24.1328 44.7508C21.8574 41.9945 15.8906 35.324 12.707 34.4436ZM35.041 35.0082C34.2793 35.0082 33.6738 35.6016 33.6738 36.348C33.6738 37.0945 34.2793 37.6879 35.041 37.6879C35.8027 37.6879 36.4082 37.0945 36.4082 36.348C36.4082 35.6016 35.8027 35.0082 35.041 35.0082ZM24.0547 36.5873C23.7227 37.0563 23.2539 37.4295 22.707 37.6496C23.1953 38.1664 23.7129 38.5971 24.25 38.9416C24.2891 38.3291 24.5039 37.7645 24.8457 37.3051C24.582 37.0945 24.3184 36.8648 24.0547 36.5873ZM31.877 37.2859C31.3301 37.5635 30.8027 37.7932 30.2754 37.9654C30.4219 38.31 30.5 38.6928 30.5 39.0947C30.5 39.3148 30.4805 39.5254 30.4317 39.7264C31.2617 39.4967 32.0723 39.1522 32.8828 38.7311C32.4141 38.3578 32.0625 37.8602 31.877 37.2859ZM27.5703 37.7549C26.8086 37.7549 26.2031 38.3482 26.2031 39.0947C26.2031 39.8412 26.8086 40.4346 27.5703 40.4346C28.332 40.4346 28.9375 39.8412 28.9375 39.0947C28.9375 38.3482 28.332 37.7549 27.5703 37.7549Z" fill="#01B7F1"/>
</svg>
