<svg width="36" height="38" viewBox="0 0 36 38" fill="none" xmlns="http://www.w3.org/2000/svg">
<path d="M24.5544 5.67145C21.7329 5.67145 19.3219 7.8502 17.9973 9.35228C16.6727 7.8502 14.2671 5.67145 11.4469 5.67145C6.58598 5.67145 3.19232 9.34207 3.19232 14.5964C3.19232 20.386 7.40713 24.1281 11.4846 27.7477C13.4096 29.4583 15.4019 31.2258 16.9298 33.1858C17.1869 33.5139 17.5639 33.7035 17.9596 33.7035H18.0377C18.4348 33.7035 18.8104 33.5125 19.0662 33.1858C20.5967 31.2258 22.5877 29.4569 24.5141 27.7477C28.5902 24.1296 32.8077 20.3875 32.8077 14.5964C32.8077 9.34207 29.414 5.67145 24.5544 5.67145Z" fill="#01B7F1"/>
</svg>
