<svg width="184" height="14" viewBox="0 0 184 14" fill="none" xmlns="http://www.w3.org/2000/svg">
<path d="M14.02 4.79043C15.29 4.86043 17.12 4.86043 19.41 4.91043C20.55 4.96043 21.81 5.02043 23.18 5.09043C24.54 5.17043 26 5.32043 27.55 5.44043C33.76 5.96043 41.32 7.41043 49.63 8.54043C53.78 9.12043 57.83 9.39043 61.62 9.47043C65.41 9.45043 68.94 9.26043 72.06 8.77043C75.19 8.38043 77.89 7.66043 80.14 7.14043C82.35 6.46043 84.09 5.89043 85.28 5.47043C84.03 5.68043 82.24 6.05043 80 6.54043C77.73 6.87043 75.03 7.42043 71.93 7.67043C68.84 8.02043 65.37 8.09043 61.65 8.04043C57.93 7.88043 53.95 7.58043 49.83 7.01043C41.59 5.89043 33.93 4.60043 27.63 4.34043C26.06 4.29043 24.58 4.21043 23.2 4.22043C21.83 4.25043 20.55 4.28043 19.4 4.31043C17.1 4.45043 15.27 4.66043 14.02 4.81043V4.79043Z" fill="#01B7F1"/>
<path d="M8.41003 6.84001C8.88003 7.57001 9.88003 8.08001 11.05 8.08001C12.22 8.08001 13.21 7.57001 13.69 6.84001C13.22 6.11001 12.22 5.60001 11.05 5.60001C9.88003 5.60001 8.89003 6.11001 8.41003 6.84001Z" fill="#005773"/>
<path d="M0 6.84001C0.47 7.57001 1.47 8.08001 2.64 8.08001C3.81 8.08001 4.8 7.57001 5.28 6.84001C4.81 6.11001 3.81 5.60001 2.64 5.60001C1.47 5.60001 0.48 6.11001 0 6.84001Z" fill="#005773"/>
<path d="M6.83998 5.28C7.56998 4.81 8.07998 3.81 8.07998 2.64C8.07998 1.47 7.56998 0.48 6.83998 0C6.10998 0.47 5.59998 1.47 5.59998 2.64C5.59998 3.81 6.10998 4.8 6.83998 5.28Z" fill="#005773"/>
<path d="M6.83998 13.69C7.56998 13.22 8.07998 12.22 8.07998 11.05C8.07998 9.88 7.56998 8.89 6.83998 8.41C6.10998 8.88 5.59998 9.88 5.59998 11.05C5.59998 12.22 6.10998 13.21 6.83998 13.69Z" fill="#005773"/>
<path d="M6.06003 8.20001C6.81003 8.63001 7.77003 8.38001 8.20003 7.63001C8.63003 6.88001 8.37003 5.92001 7.62003 5.49001C6.87003 5.06001 5.91003 5.31001 5.48003 6.06001C5.05003 6.81001 5.30003 7.77001 6.05003 8.20001H6.06003Z" fill="#005773"/>
<path d="M8.79995 8.79001C8.68995 9.31001 8.89995 9.97001 9.40995 10.48C9.91995 10.99 10.5699 11.2 11.0899 11.09C11.1999 10.57 10.9899 9.91001 10.4799 9.41001C9.96995 8.90001 9.31995 8.69001 8.79995 8.80001V8.79001Z" fill="#005773"/>
<path d="M2.59999 2.6C2.48999 3.12 2.7 3.78 3.21 4.29C3.72 4.8 4.36999 5.01 4.88999 4.9C4.99999 4.38 4.79 3.72 4.28 3.22C3.77 2.71 3.11999 2.5 2.59999 2.61V2.6Z" fill="#005773"/>
<path d="M8.78995 4.88999C9.30995 4.99999 9.96995 4.79 10.4799 4.28C10.9899 3.77 11.1999 3.11999 11.0899 2.59999C10.5699 2.48999 9.90995 2.7 9.40995 3.21C8.89995 3.72 8.68995 4.36999 8.79995 4.88999H8.78995Z" fill="#005773"/>
<path d="M2.59999 11.09C3.11999 11.2 3.78 10.99 4.28 10.48C4.79 9.97001 4.99999 9.32001 4.88999 8.80001C4.36999 8.69001 3.71 8.90001 3.21 9.41001C2.7 9.92001 2.48999 10.57 2.59999 11.09Z" fill="#005773"/>
<path d="M90.93 3.25001C90.05 3.76001 89.75 4.88001 90.26 5.76001C90.77 6.64001 91.89 6.94001 92.77 6.43001C93.65 5.92001 93.94 4.80001 93.44 3.93001C92.93 3.05001 91.82 2.75001 90.94 3.26001L90.93 3.25001Z" fill="#01B7F1"/>
<path d="M169.954 4.79043C168.684 4.86043 166.854 4.86043 164.564 4.91043C163.424 4.96043 162.164 5.02043 160.794 5.09043C159.434 5.17043 157.974 5.32043 156.414 5.44043C150.204 5.96043 142.644 7.41043 134.334 8.54043C130.184 9.12043 126.134 9.39043 122.344 9.47043C118.554 9.45043 115.024 9.26043 111.904 8.77043C108.774 8.38043 106.074 7.66043 103.824 7.14043C101.614 6.46043 99.8741 5.89043 98.6841 5.47043C99.9341 5.68043 101.724 6.05043 103.964 6.54043C106.234 6.87043 108.934 7.42043 112.034 7.67043C115.124 8.02043 118.594 8.09043 122.314 8.04043C126.034 7.88043 130.014 7.58043 134.134 7.01043C142.374 5.89043 150.034 4.60043 156.334 4.34043C157.904 4.29043 159.384 4.21043 160.764 4.22043C162.134 4.25043 163.414 4.28043 164.564 4.31043C166.864 4.45043 168.694 4.66043 169.944 4.81043L169.954 4.79043Z" fill="#01B7F1"/>
<path d="M175.564 6.84001C175.094 7.57001 174.094 8.08001 172.924 8.08001C171.754 8.08001 170.764 7.57001 170.284 6.84001C170.754 6.11001 171.754 5.60001 172.924 5.60001C174.094 5.60001 175.084 6.11001 175.564 6.84001Z" fill="#005773"/>
<path d="M183.974 6.84001C183.504 7.57001 182.504 8.08001 181.334 8.08001C180.164 8.08001 179.174 7.57001 178.694 6.84001C179.164 6.11001 180.164 5.60001 181.334 5.60001C182.504 5.60001 183.494 6.11001 183.974 6.84001Z" fill="#005773"/>
<path d="M177.124 5.28C176.394 4.81 175.884 3.81 175.884 2.64C175.884 1.47 176.394 0.48 177.124 0C177.854 0.47 178.364 1.47 178.364 2.64C178.364 3.81 177.854 4.8 177.124 5.28Z" fill="#005773"/>
<path d="M177.124 13.69C176.394 13.22 175.884 12.22 175.884 11.05C175.884 9.88 176.394 8.89 177.124 8.41C177.854 8.88 178.364 9.88 178.364 11.05C178.364 12.22 177.854 13.21 177.124 13.69Z" fill="#005773"/>
<path d="M177.914 8.20001C177.164 8.63001 176.204 8.38001 175.774 7.63001C175.344 6.88001 175.604 5.92001 176.354 5.49001C177.104 5.06001 178.064 5.31001 178.494 6.06001C178.924 6.81001 178.674 7.77001 177.924 8.20001H177.914Z" fill="#005773"/>
<path d="M175.174 8.79001C175.284 9.31001 175.074 9.97001 174.564 10.48C174.054 10.99 173.404 11.2 172.884 11.09C172.774 10.57 172.984 9.91001 173.494 9.41001C174.004 8.90001 174.654 8.69001 175.174 8.80001V8.79001Z" fill="#005773"/>
<path d="M181.374 2.6C181.484 3.12 181.274 3.78 180.764 4.29C180.254 4.8 179.604 5.01 179.084 4.9C178.974 4.38 179.184 3.72 179.694 3.22C180.204 2.71 180.854 2.5 181.374 2.61V2.6Z" fill="#005773"/>
<path d="M175.174 4.88999C174.654 4.99999 173.994 4.79 173.484 4.28C172.974 3.77 172.764 3.11999 172.874 2.59999C173.394 2.48999 174.054 2.7 174.554 3.21C175.064 3.72 175.274 4.36999 175.164 4.88999H175.174Z" fill="#005773"/>
<path d="M181.374 11.09C180.854 11.2 180.194 10.99 179.694 10.48C179.184 9.97001 178.974 9.32001 179.084 8.80001C179.604 8.69001 180.264 8.90001 180.764 9.41001C181.274 9.92001 181.484 10.57 181.374 11.09Z" fill="#005773"/>
</svg>
