<svg width="25" height="25" viewBox="0 0 25 25" fill="none" xmlns="http://www.w3.org/2000/svg">
<path d="M21.5 12.4038C21.174 12.4034 20.8526 12.4809 20.5625 12.6297V12.2163C20.5625 8.39975 17.8147 6.57068 15.6059 5.10068C14.2409 4.19225 13.0625 3.40381 13.0625 2.46631C13.0625 2.31712 13.0032 2.17405 12.8977 2.06856C12.7923 1.96307 12.6492 1.90381 12.5 1.90381C12.3508 1.90381 12.2077 1.96307 12.1023 2.06856C11.9968 2.17405 11.9375 2.31712 11.9375 2.46631C11.9375 3.40381 10.7591 4.19225 9.39406 5.10068C7.18531 6.57068 4.4375 8.39975 4.4375 12.2163V12.6297C4.12311 12.4693 3.77282 12.3922 3.42013 12.4059C3.06744 12.4196 2.72416 12.5235 2.42313 12.7078C2.12211 12.8921 1.87341 13.1505 1.70084 13.4584C1.52827 13.7663 1.43759 14.1134 1.4375 14.4663V19.7163C1.4375 19.8655 1.49676 20.0086 1.60225 20.1141C1.70774 20.2195 1.85082 20.2788 2 20.2788H8C8.14918 20.2788 8.29226 20.2195 8.39775 20.1141C8.50324 20.0086 8.5625 19.8655 8.5625 19.7163V16.7163C8.5625 16.4677 8.66127 16.2292 8.83709 16.0534C9.0129 15.8776 9.25136 15.7788 9.5 15.7788C9.74864 15.7788 9.9871 15.8776 10.1629 16.0534C10.3387 16.2292 10.4375 16.4677 10.4375 16.7163V19.7163C10.4375 19.8655 10.4968 20.0086 10.6023 20.1141C10.7077 20.2195 10.8508 20.2788 11 20.2788H14C14.1492 20.2788 14.2923 20.2195 14.3977 20.1141C14.5032 20.0086 14.5625 19.8655 14.5625 19.7163V16.7163C14.5625 16.4677 14.6613 16.2292 14.8371 16.0534C15.0129 15.8776 15.2514 15.7788 15.5 15.7788C15.7486 15.7788 15.9871 15.8776 16.1629 16.0534C16.3387 16.2292 16.4375 16.4677 16.4375 16.7163V19.7163C16.4375 19.8655 16.4968 20.0086 16.6023 20.1141C16.7077 20.2195 16.8508 20.2788 17 20.2788H23C23.1492 20.2788 23.2923 20.2195 23.3977 20.1141C23.5032 20.0086 23.5625 19.8655 23.5625 19.7163V14.4663C23.5625 13.9193 23.3452 13.3947 22.9584 13.0079C22.5716 12.6211 22.047 12.4038 21.5 12.4038ZM10.0175 6.03725C10.9897 5.39037 11.9281 4.766 12.5 4.01506C13.0719 4.76506 14.0103 5.39037 14.9825 6.03725C16.9447 7.34131 19.1562 8.81412 19.4122 11.6538H5.58781C5.84375 8.81412 8.05531 7.34131 10.0175 6.03725ZM2.5625 14.4663C2.5625 14.2177 2.66127 13.9792 2.83709 13.8034C3.0129 13.6276 3.25136 13.5288 3.5 13.5288C3.74864 13.5288 3.9871 13.6276 4.16291 13.8034C4.33873 13.9792 4.4375 14.2177 4.4375 14.4663V19.1538H2.5625V14.4663ZM15.5 14.6538C14.953 14.6538 14.4284 14.8711 14.0416 15.2579C13.6548 15.6447 13.4375 16.1693 13.4375 16.7163V19.1538H11.5625V16.7163C11.5625 16.1693 11.3452 15.6447 10.9584 15.2579C10.5716 14.8711 10.047 14.6538 9.5 14.6538C8.95299 14.6538 8.42839 14.8711 8.04159 15.2579C7.6548 15.6447 7.4375 16.1693 7.4375 16.7163V19.1538H5.5625V12.7788H19.4375V19.1538H17.5625V16.7163C17.5625 16.1693 17.3452 15.6447 16.9584 15.2579C16.5716 14.8711 16.047 14.6538 15.5 14.6538ZM22.4375 19.1538H20.5625V14.4663C20.5625 14.2177 20.6613 13.9792 20.8371 13.8034C21.0129 13.6276 21.2514 13.5288 21.5 13.5288C21.7486 13.5288 21.9871 13.6276 22.1629 13.8034C22.3387 13.9792 22.4375 14.2177 22.4375 14.4663V19.1538Z" fill="#01B7F1"/>
</svg>
