<svg width="25" height="24" viewBox="0 0 25 24" fill="none" xmlns="http://www.w3.org/2000/svg">
<g clip-path="url(#clip0_7_7)">
<path d="M12.5 7.18136C13.5533 7.18121 14.5881 7.45834 15.5003 7.98489C16.4125 8.51144 17.1701 9.26885 17.6968 10.181C18.2235 11.0931 18.5008 12.1279 18.5008 13.1811C18.5009 14.2344 18.2236 15.2692 17.697 16.1814H20.5C20.7652 16.1814 21.0196 16.2867 21.2071 16.4743C21.3946 16.6618 21.5 16.9161 21.5 17.1814C21.5 17.4466 21.3946 17.7009 21.2071 17.8885C21.0196 18.076 20.7652 18.1814 20.5 18.1814H4.49999C4.23477 18.1814 3.98042 18.076 3.79288 17.8885C3.60535 17.7009 3.49999 17.4466 3.49999 17.1814C3.49999 16.9161 3.60535 16.6618 3.79288 16.4743C3.98042 16.2867 4.23477 16.1814 4.49999 16.1814H7.30299C6.77634 15.2692 6.49911 14.2344 6.49914 13.1811C6.49918 12.1279 6.77649 11.0931 7.3032 10.181C7.82991 9.26885 8.58746 8.51144 9.49969 7.98489C10.4119 7.45834 11.4467 7.18121 12.5 7.18136ZM12.5 9.18136C11.7064 9.1813 10.9306 9.41733 10.2715 9.85942C9.61243 10.3015 9.09973 10.9297 8.79867 11.664C8.49761 12.3983 8.42179 13.2056 8.58087 13.9831C8.73995 14.7606 9.12672 15.4733 9.69199 16.0304L9.85499 16.1804H15.145C15.7539 15.6429 16.1848 14.9328 16.3804 14.1445C16.576 13.3562 16.5269 12.5271 16.2398 11.7673C15.9527 11.0076 15.4411 10.3532 14.7731 9.89129C14.105 9.42936 13.3122 9.18174 12.5 9.18136ZM21.5 12.1814C21.7549 12.1816 22 12.2792 22.1854 12.4542C22.3707 12.6292 22.4822 12.8683 22.4972 13.1228C22.5121 13.3772 22.4293 13.6277 22.2657 13.8232C22.1021 14.0186 21.8701 14.1443 21.617 14.1744L21.5 14.1814H20.5C20.2451 14.1811 20 14.0835 19.8146 13.9085C19.6293 13.7335 19.5178 13.4944 19.5028 13.24C19.4879 12.9855 19.5707 12.735 19.7343 12.5395C19.8978 12.3441 20.1299 12.2185 20.383 12.1884L20.5 12.1814H21.5ZM4.49999 12.1814C4.75487 12.1816 5.00002 12.2792 5.18536 12.4542C5.3707 12.6292 5.48223 12.8683 5.49716 13.1228C5.5121 13.3772 5.42932 13.6277 5.26573 13.8232C5.10214 14.0186 4.87009 14.1443 4.61699 14.1744L4.49999 14.1814H3.49999C3.24511 14.1811 2.99996 14.0835 2.81462 13.9085C2.62929 13.7335 2.51776 13.4944 2.50282 13.24C2.48788 12.9855 2.57067 12.735 2.73426 12.5395C2.89785 12.3441 3.12989 12.2185 3.38299 12.1884L3.49999 12.1814H4.49999ZM6.84299 6.11036L7.54999 6.81736C7.73215 7.00596 7.83294 7.25856 7.83067 7.52076C7.82839 7.78296 7.72322 8.03377 7.53781 8.21918C7.3524 8.40459 7.10159 8.50976 6.83939 8.51203C6.5772 8.51431 6.32459 8.41352 6.13599 8.23136L5.42899 7.52436C5.24683 7.33576 5.14604 7.08315 5.14832 6.82096C5.15059 6.55876 5.25576 6.30795 5.44117 6.12254C5.62658 5.93713 5.87739 5.83196 6.13959 5.82969C6.40179 5.82741 6.65439 5.9282 6.84299 6.11036ZM18.157 6.11036C18.3369 5.93101 18.5784 5.82689 18.8324 5.81913C19.0863 5.81138 19.3337 5.90057 19.5243 6.06861C19.7148 6.23664 19.8343 6.47091 19.8584 6.72383C19.8825 6.97676 19.8094 7.22937 19.654 7.43036L19.571 7.52436L18.864 8.23136C18.684 8.41071 18.4426 8.51483 18.1886 8.52259C17.9347 8.53034 17.6873 8.44114 17.4967 8.27311C17.3061 8.10508 17.1867 7.87081 17.1626 7.61788C17.1385 7.36496 17.2116 7.11235 17.367 6.91136L17.45 6.81736L18.157 6.11036Z" fill="#005773" fill-opacity="0.56"/>
<path d="M11.7718 3.28307C11.5977 3.46812 11.5006 3.7125 11.5001 3.96657L11.5001 4.96642L11.5079 5.09158C11.5402 5.34359 11.6671 5.57389 11.863 5.7357C12.0589 5.8975 12.309 5.97869 12.5626 5.96275C12.8161 5.94682 13.0541 5.83497 13.2282 5.64992C13.4023 5.46486 13.4994 5.22049 13.4998 4.96642L13.4998 3.96657L13.4921 3.84141C13.4598 3.5894 13.3329 3.3591 13.137 3.19729C12.9411 3.03548 12.691 2.9543 12.4374 2.97023C12.1839 2.98617 11.9459 3.09802 11.7718 3.28307Z" fill="#005773" fill-opacity="0.56"/>
</g>
<defs>
<clipPath id="clip0_7_7">
<rect width="24" height="24" fill="white" transform="translate(0.5)"/>
</clipPath>
</defs>
</svg>
