<svg width="22" height="22" viewBox="0 0 22 22" fill="none" xmlns="http://www.w3.org/2000/svg">
<g clip-path="url(#clip0_7_13)">
<path d="M13.2969 6.07813C12.787 6.07818 12.2788 6.13736 11.7826 6.2545C11.635 6.03883 11.4704 5.8353 11.2904 5.64582L11.9114 4.75825C12.0612 4.54438 12.1199 4.27978 12.0746 4.02264C12.0293 3.7655 11.8837 3.53688 11.6698 3.38709C11.4559 3.2373 11.1913 3.1786 10.9342 3.22391C10.677 3.26922 10.4484 3.41481 10.2986 3.62868L9.67684 4.51954C9.1001 4.267 8.48017 4.12775 7.85083 4.10938L7.66215 3.04297C7.61227 2.79021 7.46529 2.56708 7.25275 2.42147C7.04021 2.27586 6.77905 2.21939 6.52533 2.26416C6.27162 2.30893 6.04557 2.45139 5.89571 2.66095C5.74584 2.87051 5.68411 3.13048 5.72375 3.38504L5.91243 4.45145C5.32747 4.68392 4.79253 5.02643 4.33661 5.46043L3.44575 4.83618C3.23189 4.68639 2.96728 4.62769 2.71014 4.67299C2.453 4.7183 2.22439 4.8639 2.07459 5.07776C1.9248 5.29162 1.86611 5.55623 1.91141 5.81337C1.95672 6.07051 2.10231 6.29912 2.31618 6.44891L3.20704 7.07153C2.95381 7.64776 2.81453 8.26756 2.79688 8.89672L1.73047 9.08539C1.48786 9.1279 1.26999 9.25981 1.11988 9.45509C0.969772 9.65038 0.898328 9.89484 0.919653 10.1402C0.940977 10.3856 1.05352 10.6141 1.23507 10.7805C1.41661 10.947 1.65397 11.0394 1.90028 11.0394C1.95801 11.0393 2.01564 11.0343 2.07254 11.0246L3.13895 10.8359C3.21947 11.0403 3.31375 11.239 3.42114 11.4307C2.79837 12.0804 2.38018 12.8988 2.21849 13.7841C2.05681 14.6695 2.15876 15.5828 2.51169 16.4108C2.86461 17.2387 3.45296 17.9447 4.20367 18.4411C4.95438 18.9375 5.83438 19.2025 6.73438 19.2031H13.2969C15.0374 19.2031 16.7066 18.5117 17.9373 17.281C19.168 16.0503 19.8594 14.3811 19.8594 12.6406C19.8594 10.9001 19.168 9.23095 17.9373 8.00024C16.7066 6.76953 15.0374 6.07813 13.2969 6.07813ZM7.71876 6.07813C8.12657 6.07846 8.5299 6.16325 8.90333 6.32716C9.27676 6.49107 9.61219 6.73055 9.88848 7.03051C8.72076 7.73874 7.8018 8.79214 7.25856 10.0452C7.08453 10.0254 6.90952 10.0156 6.73438 10.0156C6.16377 10.0156 5.59816 10.1221 5.06668 10.3298C4.84627 9.8796 4.74407 9.3807 4.76973 8.88008C4.79539 8.37947 4.94806 7.89363 5.21336 7.46832C5.47865 7.04301 5.84785 6.69223 6.28616 6.44902C6.72448 6.2058 7.21749 6.07817 7.71876 6.07813ZM13.2969 17.2344H6.73438C6.03819 17.2344 5.37051 16.9578 4.87822 16.4655C4.38594 15.9733 4.10938 15.3056 4.10938 14.6094C4.10938 13.9132 4.38594 13.2455 4.87822 12.7532C5.37051 12.2609 6.03819 11.9844 6.73438 11.9844H6.75735C6.74833 12.0746 6.74094 12.1648 6.73602 12.2551C6.72079 12.5162 6.8099 12.7726 6.98373 12.968C7.15757 13.1633 7.4019 13.2816 7.66297 13.2969C7.92405 13.3121 8.18048 13.223 8.37585 13.0492C8.57123 12.8753 8.68954 12.631 8.70477 12.3699C8.72213 12.0651 8.76995 11.7628 8.84751 11.4676L8.85981 11.4225C9.08598 10.5956 9.53877 9.84838 10.1671 9.26518C10.7954 8.68199 11.5742 8.28604 12.4156 8.12201C13.257 7.95797 14.1276 8.0324 14.9289 8.33688C15.7303 8.64136 16.4306 9.16377 16.9508 9.84516C17.471 10.5265 17.7903 11.3398 17.8729 12.193C17.9554 13.0463 17.7978 13.9057 17.4178 14.6741C17.0378 15.4425 16.4506 16.0895 15.7224 16.5419C14.9943 16.9943 14.1541 17.2341 13.2969 17.2344Z" fill="#005773" fill-opacity="0.56"/>
</g>
<defs>
<clipPath id="clip0_7_13">
<rect width="21" height="21" fill="white" transform="translate(0.5 0.5)"/>
</clipPath>
</defs>
</svg>
