<svg width="19" height="18" viewBox="0 0 19 18" fill="none" xmlns="http://www.w3.org/2000/svg">
<g clip-path="url(#clip0_7_11)">
<path fill-rule="evenodd" clip-rule="evenodd" d="M3.98 0.599995C3.98 0.472691 3.92942 0.350601 3.83941 0.260584C3.74939 0.170566 3.6273 0.119995 3.49999 0.119995C3.37269 0.119995 3.2506 0.170566 3.16058 0.260584C3.07057 0.350601 3.01999 0.472691 3.01999 0.599995V1.32H2.29999C2.17269 1.32 2.0506 1.37057 1.96058 1.46058C1.87057 1.5506 1.82 1.67269 1.82 1.8C1.82 1.9273 1.87057 2.04939 1.96058 2.13941C2.0506 2.22942 2.17269 2.28 2.29999 2.28H3.01999V3C3.01999 3.06303 3.03241 3.12545 3.05653 3.18368C3.08066 3.24192 3.11601 3.29483 3.16058 3.33941C3.20516 3.38398 3.25807 3.41934 3.31631 3.44346C3.37454 3.46758 3.43696 3.48 3.49999 3.48C3.56303 3.48 3.62545 3.46758 3.68368 3.44346C3.74192 3.41934 3.79483 3.38398 3.83941 3.33941C3.88398 3.29483 3.91934 3.24192 3.94346 3.18368C3.96758 3.12545 3.98 3.06303 3.98 3V2.28H4.7C4.8273 2.28 4.94939 2.22942 5.03941 2.13941C5.12942 2.04939 5.18 1.9273 5.18 1.8C5.18 1.67269 5.12942 1.5506 5.03941 1.46058C4.94939 1.37057 4.8273 1.32 4.7 1.32H3.98V0.599995ZM7.58 4.2C7.58 4.13696 7.56758 4.07454 7.54346 4.01631C7.51933 3.95807 7.48398 3.90516 7.43941 3.86058C7.39483 3.81601 7.34192 3.78066 7.28368 3.75653C7.22545 3.73241 7.16303 3.72 7.09999 3.72C7.03696 3.72 6.97454 3.73241 6.91631 3.75653C6.85807 3.78066 6.80516 3.81601 6.76058 3.86058C6.71601 3.90516 6.68066 3.95807 6.65653 4.01631C6.63241 4.07454 6.61999 4.13696 6.61999 4.2V4.92H5.89999C5.83696 4.92 5.77454 4.93241 5.71631 4.95653C5.65807 4.98066 5.60516 5.01601 5.56058 5.06058C5.51601 5.10516 5.48066 5.15807 5.45653 5.21631C5.43241 5.27454 5.41999 5.33696 5.41999 5.4C5.41999 5.46303 5.43241 5.52545 5.45653 5.58368C5.48066 5.64192 5.51601 5.69483 5.56058 5.73941C5.60516 5.78398 5.65807 5.81933 5.71631 5.84346C5.77454 5.86758 5.83696 5.88 5.89999 5.88H6.61999V6.6C6.61999 6.66303 6.63241 6.72545 6.65653 6.78368C6.68066 6.84192 6.71601 6.89483 6.76058 6.93941C6.80516 6.98398 6.85807 7.01934 6.91631 7.04346C6.97454 7.06758 7.03696 7.08 7.09999 7.08C7.16303 7.08 7.22545 7.06758 7.28368 7.04346C7.34192 7.01934 7.39483 6.98398 7.43941 6.93941C7.48398 6.89483 7.51933 6.84192 7.54346 6.78368C7.56758 6.72545 7.58 6.66303 7.58 6.6V5.88H8.29999C8.4273 5.88 8.54939 5.82942 8.63941 5.73941C8.72942 5.64939 8.77999 5.5273 8.77999 5.4C8.77999 5.27269 8.72942 5.1506 8.63941 5.06058C8.54939 4.97057 8.4273 4.92 8.29999 4.92H7.58V4.2ZM2.77999 7.8C2.77999 7.67269 2.72942 7.5506 2.63941 7.46058C2.54939 7.37057 2.4273 7.32 2.29999 7.32C2.17269 7.32 2.0506 7.37057 1.96058 7.46058C1.87057 7.5506 1.82 7.67269 1.82 7.8V8.52H1.1C0.972691 8.52 0.850601 8.57057 0.760584 8.66058C0.670566 8.7506 0.619995 8.87269 0.619995 9C0.619995 9.1273 0.670566 9.24939 0.760584 9.33941C0.850601 9.42942 0.972691 9.48 1.1 9.48H1.82V10.2C1.82 10.3273 1.87057 10.4494 1.96058 10.5394C2.0506 10.6294 2.17269 10.68 2.29999 10.68C2.4273 10.68 2.54939 10.6294 2.63941 10.5394C2.72942 10.4494 2.77999 10.3273 2.77999 10.2V9.48H3.49999C3.6273 9.48 3.74939 9.42942 3.83941 9.33941C3.92942 9.24939 3.98 9.1273 3.98 9C3.98 8.87269 3.92942 8.7506 3.83941 8.66058C3.74939 8.57057 3.6273 8.52 3.49999 8.52H2.77999V7.8ZM10.7528 1.1784L10.3952 1.1304C10.1396 1.1016 9.9872 1.3992 10.1348 1.6104C11.0543 2.93424 11.546 4.50812 11.5436 6.12C11.5429 8.14611 10.766 10.095 9.37255 11.5658C7.97912 13.0367 6.07511 13.9178 4.052 14.028C3.7952 14.0424 3.6524 14.3448 3.8324 14.5284C3.9146 14.6126 3.99862 14.695 4.08439 14.7756L4.17079 14.8548L4.4828 15.126L4.7084 15.3036L4.85359 15.4116L5.07799 15.5688L5.2892 15.7068C5.43319 15.798 5.582 15.8856 5.73319 15.9672L6.04999 16.1292L6.362 16.2732L6.72559 16.4196L7.01839 16.5228C7.44978 16.6647 7.89263 16.7691 8.34199 16.8348L8.72239 16.8828L9.04279 16.9068C10.1947 16.974 11.3473 16.7887 12.4201 16.3639C13.4929 15.9391 14.4599 15.2851 15.2535 14.4475C16.0471 13.6099 16.6481 12.609 17.0144 11.5149C17.3808 10.4207 17.5036 9.25977 17.3744 8.1132L17.33 7.7808C17.2404 7.19935 17.0858 6.62979 16.8692 6.0828L16.7336 5.7612L16.6412 5.562L16.5524 5.3844C16.3621 5.01454 16.1431 4.66025 15.8972 4.3248L15.7136 4.0848L15.4748 3.7968L15.2792 3.5808L15.1352 3.432L14.9432 3.2424L14.6756 3.0024L14.2916 2.6904L13.9976 2.478L13.6472 2.25L13.262 2.0268L12.8684 1.8288L12.7328 1.7664L12.4448 1.6452L12.1136 1.5204L11.8112 1.422L11.4212 1.314L11.1032 1.242L10.7528 1.1784ZM12.9848 6.36C12.9857 5.16861 12.7525 3.98865 12.2984 2.8872C13.9129 3.64274 15.1612 5.00872 15.7686 6.68462C16.376 8.36052 16.2927 10.2091 15.5372 11.8236C14.7816 13.4381 13.4157 14.6864 11.7398 15.2938C10.0639 15.9012 8.21533 15.8179 6.60079 15.0624C8.33154 14.5171 9.86057 13.4685 10.9928 12.0504C11.1045 12.2041 11.262 12.3185 11.4427 12.3771C11.6234 12.4357 11.8181 12.4356 11.9987 12.3767C12.1794 12.3177 12.3367 12.2031 12.4481 12.0492C12.5595 11.8953 12.6193 11.71 12.6188 11.52C12.619 11.3158 12.5497 11.1176 12.4223 10.958C12.295 10.7984 12.1171 10.6868 11.918 10.6416C11.9924 10.5024 12.0644 10.3596 12.1316 10.2156C12.3289 10.3377 12.5519 10.4123 12.783 10.4336C13.014 10.455 13.2469 10.4224 13.4632 10.3385C13.6796 10.2546 13.8735 10.1216 14.0297 9.95007C14.186 9.77853 14.3003 9.57307 14.3637 9.34985C14.4271 9.12664 14.4379 8.89176 14.3951 8.66368C14.3524 8.43561 14.2573 8.22056 14.1174 8.03546C13.9775 7.85035 13.7965 7.70023 13.5887 7.59691C13.3809 7.49358 13.152 7.43987 12.92 7.44C12.9608 7.086 12.9824 6.726 12.9824 6.36H12.9848Z" fill="#005773" fill-opacity="0.56"/>
</g>
<defs>
<clipPath id="clip0_7_11">
<rect width="18" height="18" fill="white" transform="translate(0.5)"/>
</clipPath>
</defs>
</svg>
