<svg width="18" height="20" viewBox="0 0 18 20" fill="none" xmlns="http://www.w3.org/2000/svg">
<path fill-rule="evenodd" clip-rule="evenodd" d="M11.2399 3.333C11.2399 1.493 12.7399 -1.84237e-06 14.5879 -1.84237e-06C15.0266 -0.00105368 15.4613 0.0843228 15.867 0.251253C16.2728 0.418183 16.6417 0.663397 16.9527 0.972895C17.2637 1.28239 17.5106 1.65011 17.6795 2.05506C17.8484 2.46001 17.9358 2.89425 17.9369 3.333C17.9369 5.174 16.4369 6.667 14.5879 6.667C14.1445 6.66754 13.7054 6.57995 13.2961 6.40931C12.8868 6.23867 12.5156 5.98838 12.2039 5.673L7.56889 8.829C7.69797 9.472 7.63467 10.1388 7.38689 10.746L12.4689 14.086C13.0675 13.5978 13.8165 13.3318 14.5889 13.333C15.0276 13.3321 15.4623 13.4176 15.868 13.5846C16.2737 13.7517 16.6425 13.997 16.9534 14.3066C17.2643 14.6162 17.5111 14.984 17.6799 15.389C17.8486 15.794 17.936 16.2283 17.9369 16.667C17.9369 18.507 16.4369 20 14.5879 20C13.702 20.0019 12.8516 19.6518 12.2237 19.0267C11.5959 18.4017 11.242 17.5529 11.2399 16.667C11.2391 16.1996 11.3376 15.7374 11.5289 15.311L6.48689 12C5.8763 12.5309 5.09401 12.8226 4.28489 12.821C3.84611 12.8221 3.41142 12.7366 3.00566 12.5696C2.5999 12.4026 2.23102 12.1573 1.9201 11.8477C1.60918 11.5381 1.36232 11.1702 1.19362 10.7652C1.02491 10.3601 0.937677 9.92578 0.93689 9.487C0.937808 9.0483 1.02514 8.61408 1.1939 8.20914C1.36267 7.80419 1.60955 7.43647 1.92045 7.12696C2.23136 6.81744 2.60019 6.57221 3.00589 6.40527C3.41158 6.23833 3.84619 6.15295 4.28489 6.154C5.34889 6.154 6.29489 6.647 6.90789 7.415L11.4009 4.356C11.294 4.02553 11.2397 3.68032 11.2399 3.333Z" fill="#005773"/>
</svg>
