<svg width="25" height="26" viewBox="0 0 25 26" fill="none" xmlns="http://www.w3.org/2000/svg">
<path d="M16.9314 3.889C14.9966 3.889 13.3434 5.383 12.4351 6.413C11.5268 5.383 9.87723 3.889 7.94339 3.889C4.61016 3.889 2.28308 6.406 2.28308 10.009C2.28308 13.979 5.17323 16.545 7.96923 19.027C9.28923 20.2 10.6554 21.412 11.7031 22.756C11.8794 22.981 12.1378 23.111 12.4092 23.111H12.4628C12.7351 23.111 12.9926 22.98 13.168 22.756C14.2175 21.412 15.5828 20.199 16.9037 19.027C19.6988 16.546 22.5908 13.98 22.5908 10.009C22.5908 6.406 20.2637 3.889 16.9314 3.889Z" fill="#005773"/>
</svg>
