<svg width="25" height="27" viewBox="0 0 25 27" fill="none" xmlns="http://www.w3.org/2000/svg">
<g clip-path="url(#clip0_258_299)">
<path d="M12.452 23.1525C12.7243 23.1525 12.9819 23.0215 13.1573 22.7975L11.9075 5.90687C10.9553 4.96577 9.54249 3.93045 7.93265 3.93045C4.59942 3.93045 2.27234 6.44745 2.27234 10.0505C2.27234 14.0205 5.16249 16.5865 7.95849 19.0685L7.97762 19.0855C9.29168 20.2532 10.6497 21.4599 11.6923 22.7975C11.8686 23.0225 12.1271 23.1525 12.3985 23.1525H12.452ZM12.4245 5.36332C12.0182 4.96285 11.5293 4.54213 10.9737 4.17859C10.1321 3.62796 9.09389 3.18045 7.93265 3.18045C6.06793 3.18045 4.44957 3.8891 3.3019 5.13011C2.15822 6.3668 1.52234 8.08692 1.52234 10.0505C1.52234 14.3594 4.64359 17.1294 7.36028 19.5403C7.39378 19.57 7.42722 19.5997 7.46059 19.6293C8.79193 20.8124 10.1031 21.9786 11.1008 23.2586L11.102 23.26C11.4116 23.6551 11.8826 23.9025 12.3985 23.9025H12.452C12.9705 23.9025 13.4401 23.6528 13.7478 23.2598L13.7484 23.2591C14.7483 21.9786 16.0593 20.8108 17.3907 19.6295L17.3908 19.6294C17.4251 19.5989 17.4594 19.5685 17.4938 19.538C20.2089 17.1287 23.33 14.359 23.33 10.0505C23.33 8.08692 22.6941 6.36682 21.5506 5.13014C20.4031 3.88914 18.785 3.18045 16.9206 3.18045C15.7591 3.18045 14.7199 3.62782 13.8773 4.17834C13.3209 4.5419 12.8312 4.96269 12.4245 5.36332Z" stroke="#005773" stroke-width="1.5"/>
</g>
<defs>
<clipPath id="clip0_258_299">
<rect width="24" height="26" fill="white" transform="translate(0.426147 0.0414429)"/>
</clipPath>
</defs>
</svg>
